<?xml version="1.0" standalone="no"?><!DOCTYPE svg PUBLIC "-//W3C//DTD SVG 1.1//EN" "http://www.w3.org/Graphics/SVG/1.1/DTD/svg11.dtd"><svg t="1686121822553" class="icon" viewBox="0 0 1024 1024" version="1.1" xmlns="http://www.w3.org/2000/svg" p-id="2405" xmlns:xlink="http://www.w3.org/1999/xlink" width="200" height="200"><path d="M512.58 64.38C266.48 64.07 67.1 260.93 64.41 507A450.64 450.64 0 0 0 67 560.77a24.43 24.43 0 0 0 33.31 20.13c113.25-45 229.18-30.07 287.58 46.37 55.61 72.81 43.63 181.28-20.85 275.61a24.37 24.37 0 0 0 12.95 37 447.74 447.74 0 0 0 132 19.78c247.21 0 447.62-200.41 447.62-447.62C959.62 265 759.52 64.7 512.58 64.38z m-21 194a66.6 66.6 0 1 1 66.59-66.6 66.59 66.59 0 0 1-66.58 66.6z m189 85.79a63 63 0 1 1 63-63 63 63 0 0 1-63.01 63zM788.81 657.5a39.65 39.65 0 1 1 39.64-39.64 39.65 39.65 0 0 1-39.64 39.64z m-8.63-161.23a51.66 51.66 0 1 1 51.66-51.66 51.65 51.65 0 0 1-51.66 51.66z" fill="#D786EA" p-id="2406"></path><path d="M378 172.49c7.56 11.34-32.18 25.35-74.11 53.28s-70.21 59.23-77.76 47.88 15.62-50.2 57.55-78.14 86.72-34.36 94.32-23.02z" fill="#FFFFFF" p-id="2407"></path><path d="M959.62 512a446.07 446.07 0 0 0-40.27-185.8 413.78 413.78 0 0 0-213.89-102.84 63 63 0 1 1-36.13-4.1q-14.48-1-29.21-1A416 416 0 0 0 547 228.74a66.58 66.58 0 0 1-77.22 26c-121.58 54.8-212 166.44-237.46 301.06 64 1.61 120.31 25.32 155.6 71.51 55.61 72.81 43.63 181.28-20.85 275.61a24.37 24.37 0 0 0 12.95 37 447.74 447.74 0 0 0 132 19.78c247.19-0.08 447.6-200.49 447.6-447.7z m-231.09-67.39a51.66 51.66 0 1 1 51.65 51.66 51.64 51.64 0 0 1-51.65-51.66z m60.28 212.89a39.65 39.65 0 1 1 39.64-39.64 39.65 39.65 0 0 1-39.64 39.64z" fill="#CA6EE0" p-id="2408"></path><path d="M957.32 557.58a365.14 365.14 0 0 0-129.52-92.9 51.66 51.66 0 0 1-99.27-20.07 52.79 52.79 0 0 1 0.38-6.2 367.85 367.85 0 0 0-43.4-2.57c-132 0-247.68 70.24-311.58 175.4a166.49 166.49 0 0 1 14 16c55.61 72.81 43.63 181.28-20.85 275.61a24.37 24.37 0 0 0 12.95 37 447.74 447.74 0 0 0 132 19.78c231.8-0.01 422.46-176.25 445.29-402.05z m-168.51 20.63a39.65 39.65 0 1 1-39.65 39.65 39.65 39.65 0 0 1 39.65-39.65z" fill="#C65EDB" p-id="2409"></path><path d="M512 959.62c190.78 0 353.68-119.36 418.11-287.48a361.77 361.77 0 0 0-110-30 39.63 39.63 0 0 1-63.7-1.41c-172 11.07-311.55 141.53-336.57 309.39a449.72 449.72 0 0 0 92.16 9.5z" fill="#BD50D3" p-id="2410"></path></svg>