<?xml version="1.0" standalone="no"?><!DOCTYPE svg PUBLIC "-//W3C//DTD SVG 1.1//EN" "http://www.w3.org/Graphics/SVG/1.1/DTD/svg11.dtd"><svg t="1686124356155" class="icon" viewBox="0 0 1024 1024" version="1.1" xmlns="http://www.w3.org/2000/svg" p-id="1953" xmlns:xlink="http://www.w3.org/1999/xlink" width="200" height="200"><path d="M513.12 523.2m-464 0a464 464 0 1 0 928 0 464 464 0 1 0-928 0Z" p-id="1954"></path><path d="M552.48 413.76a44.16 44.16 0 0 0 60.96 0 80 80 0 0 0 23.84-57.44 83.52 83.52 0 0 0-20.16-54.88 44.32 44.32 0 0 0-60.64-6.88c-35.04 25.44-37.12 88.48-4 119.2zM480 408a80 80 0 0 0 17.6-54.56 76.32 76.32 0 0 0-14.24-45.6 45.76 45.76 0 0 0-77.12-2.4 85.12 85.12 0 0 0 3.36 104.8 45.28 45.28 0 0 0 70.4-2.24zM722.72 422.08A46.08 46.08 0 0 0 651.2 416a84.16 84.16 0 0 0-14.88 92.8 49.12 49.12 0 0 0 81.28 12 73.28 73.28 0 0 0 19.52-49.76 84.16 84.16 0 0 0-14.4-48.96zM389.92 508a69.6 69.6 0 0 0 7.2-33.76 78.56 78.56 0 0 0-22.4-59.36 45.28 45.28 0 0 0-66.4 1.76 80 80 0 0 0-2.88 100.48 49.76 49.76 0 0 0 84.48-9.12zM665.76 592a265.6 265.6 0 0 1-80-76.96 213.12 213.12 0 0 0-16-21.92 72.96 72.96 0 0 0-85.92-22.88 80 80 0 0 0-38.4 34.72 272 272 0 0 1-82.88 84.48 131.68 131.68 0 0 0-26.56 24 89.76 89.76 0 0 0 45.12 144 153.92 153.92 0 0 0 74.4-4.16 224 224 0 0 1 102.4-1.44 357.28 357.28 0 0 0 51.84 8.48A90.4 90.4 0 0 0 710.88 672a136.32 136.32 0 0 0-1.28-13.92A100.48 100.48 0 0 0 665.76 592z m-179.52 125.44h-54.4A60 60 0 0 1 373.92 656 58.4 58.4 0 0 1 432 595.84h17.44c12.32 0 12.32 0 12.32-12v-34.4c0-6.08 2.4-8.32 8.32-8.16 32 0.8 25.6-4.64 26.08 24.64v141.28c0.64 7.2-1.76 10.4-9.92 10.24z m134.56 0h-66.56a30.88 30.88 0 0 1-32.96-33.76v-80c0-7.52 1.76-11.04 10.24-10.88 27.36 0.96 23.04-3.68 23.36 23.2v55.36c0 10.56 2.4 12.8 12.96 12.96h20c6.56 0 9.12-2.72 9.12-9.28v-72c0-7.52 2.08-11.04 9.92-10.24a92.48 92.48 0 0 0 14.88 0c7.04 0 9.12 2.72 8.96 9.28v105.44c-0.32 6.72-2.72 9.76-9.92 9.6z" fill="#FFFFFF" p-id="1955"></path><path d="M454.72 627.36h-19.2a27.52 27.52 0 0 0-28.32 27.2 28.16 28.16 0 0 0 26.24 30.4h21.76c4.64 0 6.88-2.08 6.88-7.04v-21.76-21.92c0-7.2-2.08-6.88-7.36-6.88z" fill="#FFFFFF" p-id="1956"></path></svg>