<?xml version="1.0" standalone="no"?><!DOCTYPE svg PUBLIC "-//W3C//DTD SVG 1.1//EN" "http://www.w3.org/Graphics/SVG/1.1/DTD/svg11.dtd"><svg t="1686121130289" class="icon" viewBox="0 0 1024 1024" version="1.1" xmlns="http://www.w3.org/2000/svg" p-id="2367" xmlns:xlink="http://www.w3.org/1999/xlink" width="200" height="200"><path d="M839.012174 276.925217a122.137971 122.137971 0 0 0-13.727536-32.055652 14.321159 14.321159 0 0 1 1.484058-16.769855l17.289275-19.812174-27.306667-27.306666-20.48 17.808695a14.246957 14.246957 0 0 1-16.473043 1.632464 127.109565 127.109565 0 0 0-32.352464-12.911304 14.246957 14.246957 0 0 1-10.833623-12.911305L734.608696 148.405797h-38.437102l-1.780869 27.084058a14.395362 14.395362 0 0 1-10.536812 12.837102 122.137971 122.137971 0 0 0-31.981449 13.727536 14.395362 14.395362 0 0 1-16.844058-1.484058l-19.737971-17.289276-27.306667 27.306667 17.808696 20.48a14.246957 14.246957 0 0 1 1.632464 16.473044 126.144928 126.144928 0 0 0-12.911305 32.352463 14.172754 14.172754 0 0 1-12.911304 10.833624l-26.193623 1.780869v38.65971l27.084058 1.78087a14.395362 14.395362 0 0 1 12.837101 10.536811 122.137971 122.137971 0 0 0 13.727536 31.98145 14.395362 14.395362 0 0 1-1.484058 16.844058l-17.289275 19.737971 27.306667 27.306666L638.144928 421.62087a14.246957 14.246957 0 0 1 16.473043-1.632464 126.144928 126.144928 0 0 0 32.352464 12.911304A14.246957 14.246957 0 0 1 697.507246 445.811014l1.78087 26.193624h38.585507l2.077681-26.787247a14.395362 14.395362 0 0 1 10.536812-12.837101 123.251014 123.251014 0 0 0 31.981449-13.727536 14.321159 14.321159 0 0 1 16.769855 1.484058l19.812174 17.289275 27.306667-27.306667-17.808696-20.48a14.246957 14.246957 0 0 1-1.632464-16.473043 126.144928 126.144928 0 0 0 12.911305-32.352464 14.246957 14.246957 0 0 1 12.911304-10.833623l26.193623-1.78087V289.391304l-27.084058-1.855072a14.395362 14.395362 0 0 1-12.837101-10.611015zM717.171014 374.798841a64.556522 64.556522 0 1 1 64.556522-64.556522 64.630725 64.630725 0 0 1-64.556522 64.556522z" fill="#FE7878" p-id="2368"></path><path d="M717.171014 274.550725a35.988406 35.988406 0 1 0 35.988406 35.988405A36.062609 36.062609 0 0 0 717.171014 274.550725z" fill="#FE7878" p-id="2369"></path><path d="M883.014493 6.678261H140.985507a133.565217 133.565217 0 0 0-133.565217 133.565217v742.028986a133.565217 133.565217 0 0 0 133.565217 133.565217h742.028986a133.565217 133.565217 0 0 0 133.565217-133.565217v-742.028986a133.565217 133.565217 0 0 0-133.565217-133.565217zM120.431304 556.521739A339.626667 339.626667 0 0 1 460.057971 216.746667v299.557101l-176.89971 330.054493A339.404058 339.404058 0 0 1 120.431304 556.521739zM460.057971 896a338.216812 338.216812 0 0 1-146.921739-33.317101l155.084058-289.391305 121.09913 296.811594A338.884638 338.884638 0 0 1 460.057971 896z m160.278261-40.143768L498.198261 556.521739h301.486377a339.552464 339.552464 0 0 1-179.348406 299.334493zM907.501449 341.333333a14.321159 14.321159 0 0 1-13.282319 14.246957l-29.681159 2.003478a161.242899 161.242899 0 0 1-8.162319 20.48l20.108986 23.077102a14.246957 14.246957 0 0 1-0.667826 19.515362l-46.154203 46.154203a14.321159 14.321159 0 0 1-19.44116 0.667826l-22.260869-19.44116a153.6 153.6 0 0 1-20.331594 8.68174l-2.077682 30.645797a14.321159 14.321159 0 0 1-14.246956 13.282319h-65.298551a14.321159 14.321159 0 0 1-14.246956-13.282319l-2.003479-29.68116a156.93913 156.93913 0 0 1-20.48-8.162319l-23.077101 20.183189a14.395362 14.395362 0 0 1-19.515362-0.667826L560.677101 422.956522a14.321159 14.321159 0 0 1-0.667826-19.44116l19.44116-22.260869a153.6 153.6 0 0 1-8.681739-20.331594l-30.645797-2.077682A14.246957 14.246957 0 0 1 526.84058 344.524058v-65.298551a14.395362 14.395362 0 0 1 13.282319-14.246956l29.681159-2.003479a155.826087 155.826087 0 0 1 8.162319-20.405797l-20.183189-23.151304a14.395362 14.395362 0 0 1 0.667826-19.515362l46.228406-46.154203a14.321159 14.321159 0 0 1 19.44116-0.667826l22.260869 19.441159a164.136812 164.136812 0 0 1 20.331594-8.681739l1.929276-30.274783A14.321159 14.321159 0 0 1 682.666667 119.911884h65.29855a14.321159 14.321159 0 0 1 14.246957 13.356522l2.003478 29.681159a155.826087 155.826087 0 0 1 20.405797 8.162319l23.151305-20.108985a14.321159 14.321159 0 0 1 19.515362 0.593623l46.154203 46.228406a14.321159 14.321159 0 0 1 0.667826 19.441159l-19.441159 22.26087a158.423188 158.423188 0 0 1 8.904347 20.183188l30.645797 2.077681a14.321159 14.321159 0 0 1 13.282319 14.246957z" fill="#FE7878" p-id="2370"></path></svg>