<?xml version="1.0" standalone="no"?><!DOCTYPE svg PUBLIC "-//W3C//DTD SVG 1.1//EN" "http://www.w3.org/Graphics/SVG/1.1/DTD/svg11.dtd"><svg t="1686121865217" class="icon" viewBox="0 0 1024 1024" version="1.1" xmlns="http://www.w3.org/2000/svg" p-id="3433" xmlns:xlink="http://www.w3.org/1999/xlink" width="200" height="200"><path d="M960.54 592c0-108.71-84.82-198-191.75-205.1a68.9 68.9 0 0 0-68.65-63.19H132.37a68.91 68.91 0 0 0-68.91 68.91v374.17a160.8 160.8 0 0 0 160.8 160.8h384a160.84 160.84 0 0 0 157.91-130.3c108.15-5.83 194.37-95.67 194.37-205.29zM769.05 743.69V440.35C846.47 447.48 907.3 512.77 907.3 592s-60.83 144.56-138.25 151.69z" fill="#FF7196" p-id="3434"></path><path d="M202.12 122.23m30.72 0l6.72 0q30.72 0 30.72 30.72l0 77.75q0 30.72-30.72 30.72l-6.72 0q-30.72 0-30.72-30.72l0-77.75q0-30.72 30.72-30.72Z" fill="#FF7196" p-id="3435"></path><path d="M388.34 96.41m30.72 0l6.72 0q30.72 0 30.72 30.72l0 129.41q0 30.72-30.72 30.72l-6.72 0q-30.72 0-30.72-30.72l0-129.41q0-30.72 30.72-30.72Z" fill="#FF7196" p-id="3436"></path><path d="M562.23 122.23m30.72 0l6.72 0q30.72 0 30.72 30.72l0 77.75q0 30.72-30.72 30.72l-6.72 0q-30.72 0-30.72-30.72l0-77.75q0-30.72 30.72-30.72Z" fill="#FF7196" p-id="3437"></path><path d="M768.79 386.92a68.9 68.9 0 0 0-68.65-63.19H447.85c-164.24 68.65-279.65 230.82-279.65 420a453.37 453.37 0 0 0 38.27 182.92 163.31 163.31 0 0 0 17.79 1h384a160.84 160.84 0 0 0 157.91-130.3c108.15-5.89 194.37-95.73 194.37-205.35 0-108.69-84.82-197.94-191.75-205.08z m0.26 356.77V440.35C846.47 447.48 907.3 512.77 907.3 592s-60.83 144.56-138.25 151.69z" fill="#FF5F89" p-id="3438"></path><path d="M361.17 842.06a421.3 421.3 0 0 0 8.74 85.53h238.33a160.84 160.84 0 0 0 157.91-130.3c108.17-5.83 194.39-95.67 194.39-205.29a205.12 205.12 0 0 0-69.81-154.23 419.4 419.4 0 0 0-110.55-14.74c-231.41 0.02-419.01 187.62-419.01 419.03zM907.3 592c0 79.25-60.83 144.54-138.25 151.67V440.35C846.47 447.48 907.3 512.77 907.3 592z" fill="#FF4D7C" p-id="3439"></path><path d="M907.3 592c0 79.25-60.83 144.54-138.25 151.67V589.62c-139.53 49-239.62 181.78-239.91 338h79.1a160.84 160.84 0 0 0 157.91-130.3c108.17-5.86 194.39-95.7 194.39-205.32q0-7.75-0.57-15.36a357.76 357.76 0 0 0-54.28-6.79A152.67 152.67 0 0 1 907.3 592z" fill="#FF3369" p-id="3440"></path><path d="M268.19 359.65C275.75 371 236 385 194.08 412.93s-70.16 59.22-77.71 47.88 15.63-50.21 57.55-78.14 86.72-34.36 94.27-23.02z" fill="#FFFFFF" p-id="3441"></path></svg>