<?xml version="1.0" standalone="no"?><!DOCTYPE svg PUBLIC "-//W3C//DTD SVG 1.1//EN" "http://www.w3.org/Graphics/SVG/1.1/DTD/svg11.dtd"><svg t="1686121135070" class="icon" viewBox="0 0 1024 1024" version="1.1" xmlns="http://www.w3.org/2000/svg" p-id="2523" xmlns:xlink="http://www.w3.org/1999/xlink" width="200" height="200"><path d="M438.084836 230.364368m14.708149-1.978164l36.917456-4.965194q14.70815-1.978165 16.686315 12.729984l56.348028 418.961647q1.978165 14.70815-12.729985 16.686314l-36.917456 4.965194q-14.70815 1.978165-16.686315-12.729985l-56.348028-418.961646q-1.978165-14.70815 12.729985-16.686314Z" fill="#FE7878" p-id="2524"></path><path d="M568.913623 754.42087l-51.942029 6.975072a18.550725 18.550725 0 0 0 4.897392 37.101449l51.942028-7.049275a18.550725 18.550725 0 1 0-4.897391-37.101449z" fill="#FE7878" p-id="2525"></path><path d="M223.49913 223.202319m14.84058 0l37.249855 0q14.84058 0 14.84058 14.84058l0 422.733913q0 14.84058-14.84058 14.840579l-37.249855 0q-14.84058 0-14.84058-14.840579l0-422.733913q0-14.84058 14.84058-14.84058Z" fill="#FE7878" p-id="2526"></path><path d="M283.306667 759.986087h-52.684058a18.550725 18.550725 0 0 0 0 37.101449h52.684058a18.550725 18.550725 0 0 0 0-37.101449z" fill="#FE7878" p-id="2527"></path><path d="M883.014493 6.678261H140.985507a133.565217 133.565217 0 0 0-133.565217 133.565217v742.028986a133.565217 133.565217 0 0 0 133.565217 133.565217h742.028986a133.565217 133.565217 0 0 0 133.565217-133.565217v-742.028986a133.565217 133.565217 0 0 0-133.565217-133.565217zM356.173913 843.315942a29.681159 29.681159 0 0 1-29.681159 29.681159H188.252754a29.681159 29.681159 0 0 1-29.68116-29.681159V188.994783a29.681159 29.681159 0 0 1 29.68116-29.68116H326.492754a29.681159 29.681159 0 0 1 29.681159 29.68116zM627.088696 860.753623L489.73913 879.081739a29.681159 29.681159 0 0 1-33.391304-25.451594l-87.114203-648.533333a29.681159 29.681159 0 0 1 25.451594-33.391305l137.275363-18.476521a29.681159 29.681159 0 0 1 33.391304 25.451594l87.188406 648.533333a29.681159 29.681159 0 0 1-25.451594 33.53971z m236.03942-17.289275a29.681159 29.681159 0 0 1-29.681159 29.681159H694.984348a29.681159 29.681159 0 0 1-29.68116-29.681159v-654.469565a29.681159 29.681159 0 0 1 29.68116-29.68116h138.462609a29.681159 29.681159 0 0 1 29.681159 29.68116z" fill="#FE7878" p-id="2528"></path><path d="M789.964058 759.986087h-52.684058a18.550725 18.550725 0 0 0 0 37.101449h52.684058a18.550725 18.550725 0 0 0 0-37.101449z" fill="#FE7878" p-id="2529"></path><path d="M730.156522 223.202319m14.840579 0l37.249856 0q14.84058 0 14.840579 14.84058l0 422.733913q0 14.84058-14.840579 14.840579l-37.249856 0q-14.84058 0-14.840579-14.840579l0-422.733913q0-14.84058 14.840579-14.84058Z" fill="#FE7878" p-id="2530"></path></svg>