<svg xmlns="http://www.w3.org/2000/svg" xmlns:xlink="http://www.w3.org/1999/xlink" fill="none" version="1.1" width="48" height="47.9990234375" viewBox="0 0 48 47.9990234375"><defs><mask id="master_svg0_6941_54250"><g style="mix-blend-mode:passthrough"><rect x="0" y="0" width="47.999996185302734" height="47.999996185302734" rx="10" fill="#FFFFFF" fill-opacity="1"/></g></mask></defs><g style="mix-blend-mode:passthrough"><g style="mix-blend-mode:passthrough" mask="url(#master_svg0_6941_54250)"><g style="mix-blend-mode:passthrough"><rect x="5.95458984375" y="6.115234375" width="36.0908203125" height="36.0908203125" rx="5" fill="#FF6633" fill-opacity="1"/></g><g><path d="M24.63791640625,16.23490453125C25.112316406250002,17.99750453125,24.063716406250002,19.81253453125,22.30112640625,20.28439453125C20.53852640625,20.75624453125,18.72349640625,19.71017453125,18.25163640625,17.947574531249998C18.09434640625,17.36337453125,18.11931640625,16.77667453125,18.26661640625,16.23241453125C18.56370640625,15.13390453125,19.41005640625,14.21515853125,20.58845640625,13.89809053125C21.76685640625,13.58102253125,22.95773640625,13.95551253125,23.76663640625,14.75692053125C24.168616406250003,15.15388453125,24.48061640625,15.65070453125,24.63791640625,16.23490453125ZM29.19101640625,14.86314453125C30.17211640625,18.53064453125,28.41951640625,22.288024531250002,25.18141640625,23.963244531249998C29.89751640625,23.53882453125,34.37641640625,26.54974453125,35.64221640625,31.27574453125L32.449016406249996,32.13214453125C31.50281640625,28.60444453125,27.877716406250002,26.50974453125,24.35001640625,27.455944531249997C20.82235640625,28.40224453125,18.72770640625,32.02724453125,19.67391640625,35.55494453125L16.48075640625,36.41124453125C15.21247640625,31.68274453125,17.58675640625,26.83684453125,21.88341640625,24.84704453125C18.24086640625,25.01434453125,14.84547940625,22.64005453125,13.86181640625,18.97254453125L16.41834640625,18.28598453125C17.17481640625,21.10713453125,20.07586640625,22.78235453125,22.897036406250002,22.02588453125C25.71821640625,21.26941453125,27.393416406249997,18.368364531250002,26.636916406250002,15.54721453125L29.19101640625,14.86314453125Z" fill-rule="evenodd" fill="#FFFFFF" fill-opacity="1"/></g></g></g></svg>