<?xml version="1.0" standalone="no"?><!DOCTYPE svg PUBLIC "-//W3C//DTD SVG 1.1//EN" "http://www.w3.org/Graphics/SVG/1.1/DTD/svg11.dtd"><svg t="1686124352452" class="icon" viewBox="0 0 1024 1024" version="1.1" xmlns="http://www.w3.org/2000/svg" p-id="1798" xmlns:xlink="http://www.w3.org/1999/xlink" width="200" height="200"><path d="M513.12 523.2m-464 0a464 464 0 1 0 928 0 464 464 0 1 0-928 0Z" p-id="1799"></path><path d="M551.04 363.52c-92.64-33.92-228-96-228-96a8.16 8.16 0 0 0-10.88 6.88 214.72 214.72 0 0 0 32 112c12.32 13.76 195.36 69.92 195.36 69.92s-140.8-28.48-174.88-38.4-23.2 11.04-23.2 11.04c7.04 37.92 39.84 81.12 65.6 85.12s134.72 2.4 134.72 2.4-21.76 2.56-56.96 7.36a573.44 573.44 0 0 0-68 11.04c-20.32 7.68 14.72 38.4 14.72 38.4 51.84 48 80 32 80 32 20.32-6.56 37.6-11.36 52-14.88l-17.92 75.2h51.84l-28.64 113.6 125.76-167.2H628.8l13.6-23.84s46.72-75.2 64-113.6a93.44 93.44 0 0 0 6.08-16c11.52-43.84-68.96-61.12-161.44-95.04z" fill="#FFFFFF" p-id="1800"></path></svg>