<svg xmlns="http://www.w3.org/2000/svg" xmlns:xlink="http://www.w3.org/1999/xlink" fill="none" version="1.1" width="48" height="47.9990234375" viewBox="0 0 48 47.9990234375"><defs><mask id="master_svg0_6941_52893"><g style="mix-blend-mode:passthrough"><rect x="0" y="0" width="47.999996185302734" height="47.999996185302734" rx="10" fill="#FFFFFF" fill-opacity="1"/></g></mask></defs><g style="mix-blend-mode:passthrough"><g style="mix-blend-mode:passthrough" mask="url(#master_svg0_6941_52893)"><g style="mix-blend-mode:passthrough"><rect x="5.95458984375" y="6.115234375" width="36.0908203125" height="36.0908203125" rx="5" fill="#111111" fill-opacity="1"/></g><g style="mix-blend-mode:passthrough"><g style="mix-blend-mode:passthrough"><rect x="12.785400390625" y="11.83154296875" width="24.336427688598633" height="24.336427688598633" rx="0" fill="#D8D8D8" fill-opacity="0"/></g><g style="mix-blend-mode:passthrough"><g><path d="M16.17800283432007,28.68126501479149C16.18235233432007,24.805065014791488,19.323582834320067,21.66381501479149,23.199822834320067,21.65947501479149L23.199822834320067,25.87236501479149C21.649402834320068,25.874165014791487,20.39298283432007,27.130565014791486,20.39121283432007,28.68096501479149C20.39121283432007,30.061065014791488,21.137502834320067,31.54576501479149,22.77625283432007,31.54576501479149C22.88528283432007,31.54576501479149,25.446882834320068,31.52056501479149,25.446882834320068,29.34196501479149L25.446882834320068,13.373365014791489L29.936302834320067,13.373365014791489C29.94130283432007,15.46949501479149,31.64040283432007,17.16696501479149,33.73650283432006,17.17001501479149L33.732702834320065,21.37533501479149C32.29920283432007,21.386345014791488,30.890502834320067,21.00199501479149,29.661302834320068,20.264525014791488L29.65950283432007,29.34196501479149C29.65950283432007,33.50986501479149,26.112792834320068,35.75866501479149,22.77566283432007,35.75866501479149C19.014672834320066,35.75956501479149,16.178003391876068,32.71646501479149,16.17800283432007,28.68126501479149Z" fill="#FF4040" fill-opacity="1"/></g><g><path d="M15.052086591720581,27.558319467687607C15.05643664172058,23.682119467687606,18.19766659172058,20.540879467687606,22.07390659172058,20.536529467687608L22.07390659172058,24.74941946768761C20.52348659172058,24.751219467687605,19.26706659172058,26.007619467687604,19.26529659172058,27.558019467687608C19.26529659172058,28.938119467687606,20.01158659172058,30.422819467687606,21.65033659172058,30.422819467687606C21.759366591720582,30.422819467687606,24.32096659172058,30.39761946768761,24.32096659172058,28.21901946768761L24.32096659172058,12.250419467687607L28.81038659172058,12.250419467687607C28.815386591720582,14.346549467687607,30.514486591720583,16.04401946768761,32.610586591720576,16.047069467687606L32.60678659172058,20.252389467687607C31.173286591720583,20.263399467687606,29.76458659172058,19.879049467687608,28.53538659172058,19.141569467687606L28.53358659172058,28.21901946768761C28.53358659172058,32.386919467687605,24.98687659172058,34.63571946768761,21.649746591720582,34.63571946768761C17.88875659172058,34.63661946768761,15.05208714927658,31.593519467687607,15.052086591720581,27.558319467687607Z" fill="#00F5FF" fill-opacity="1"/></g><g><path d="M22.072529242515564,21.74405199439049C17.538649242515564,22.319331994390488,13.952469242515564,28.10198199439049,17.673119242515565,33.30558199439049C21.110219242515562,36.11688199439049,28.340729242515565,34.48188199439049,28.541029242515563,28.399581994390488L28.536029242515564,19.146201994390488C29.772529242515564,19.87203199439049,31.181229242515563,20.252811994390488,32.61502924251556,20.248831994390486L32.61502924251556,16.995021994390488C31.772029242515565,16.710301994390488,31.043229242515565,16.16148199439049,30.536629242515566,15.429941994390488C29.79332924251556,14.940991994390487,29.241729242515564,14.210307994390488,28.975129242515564,13.361481994390488L25.444739242515563,13.361481994390488L25.442399242515563,29.38818199439049C25.439179242515564,31.628281994390488,21.703629242515564,32.42598199439048,20.755339242515564,30.251981994390487C18.380529242515564,29.11668199439049,18.917519242515564,24.80168199439049,22.077499242515565,24.754681994390488L22.072529242515564,21.74405199439049Z" fill="#FFFFFF" fill-opacity="1"/></g></g></g></g></g></svg>