<?xml version="1.0" standalone="no"?><!DOCTYPE svg PUBLIC "-//W3C//DTD SVG 1.1//EN" "http://www.w3.org/Graphics/SVG/1.1/DTD/svg11.dtd"><svg t="1686124386740" class="icon" viewBox="0 0 1024 1024" version="1.1" xmlns="http://www.w3.org/2000/svg" p-id="2885" xmlns:xlink="http://www.w3.org/1999/xlink" width="200" height="200"><path d="M512 512m-464 0a464 464 0 1 0 928 0 464 464 0 1 0-928 0Z" p-id="2886"></path><path d="M636.64 275.52V352H592a41.76 41.76 0 0 0-33.44 10.4 48 48 0 0 0-8.64 31.04V448h84.48l-11.2 85.44h-73.92V752h-88.32V533.12h-73.6V448h73.6v-63.2a112 112 0 0 1 29.92-83.2 109.28 109.28 0 0 1 80-29.6 464 464 0 0 1 65.76 3.52z" fill="#FFFFFF" p-id="2887"></path></svg>