<?xml version="1.0" standalone="no"?><!DOCTYPE svg PUBLIC "-//W3C//DTD SVG 1.1//EN" "http://www.w3.org/Graphics/SVG/1.1/DTD/svg11.dtd"><svg t="1686121786358" class="icon" viewBox="0 0 1024 1024" version="1.1" xmlns="http://www.w3.org/2000/svg" p-id="1454" xmlns:xlink="http://www.w3.org/1999/xlink" width="200" height="200"><path d="M349.28 175.95m-112.38 0a112.38 112.38 0 1 0 224.76 0 112.38 112.38 0 1 0-224.76 0Z" fill="#FF3369" p-id="1455"></path><path d="M781.11 257.24l-24-20.58a84.5 84.5 0 1 0-19.65 28.42l21.24 18.23a17.18 17.18 0 0 0 22.38-26.07z" fill="#FF3369" p-id="1456"></path><path d="M747 332.86H277c-110.25 0-200.46 90.2-200.46 200.45V865c0 52.5 43 95.45 95.46 95.45h680c52.5 0 95.46-42.95 95.46-95.45V533.31c-0.01-110.25-90.22-200.45-200.46-200.45zM589.72 603.34a115.89 115.89 0 0 1-6.84 33.12 183.59 183.59 0 0 1-13.88 29.7 198.17 198.17 0 0 1-17.61 25.49 282.59 282.59 0 0 1-18.92 21q-14.19 14.72-30 28.12t-30 23.65a228.74 228.74 0 0 1-25.5 16.3q-11.29 6-16.56 6-6.3 0-16.55-6.3A220.22 220.22 0 0 1 391 763.93q-12.61-10.26-26.81-23.66t-28.36-27.07q-8.94-8.93-20-20.24a219.78 219.78 0 0 1-20.76-24.7 150.69 150.69 0 0 1-16.56-29.44 93.93 93.93 0 0 1-7.36-34.43 98.61 98.61 0 0 1 3.68-33.9 92.89 92.89 0 0 1 13.93-28.65 84.42 84.42 0 0 1 22.61-21.29 90.76 90.76 0 0 1 30.22-12.35 53.75 53.75 0 0 1 33.41 3.42 153.19 153.19 0 0 1 30.22 17.08 185.14 185.14 0 0 1 30 27.86 160.12 160.12 0 0 1 25.23-25.76 173.29 173.29 0 0 1 25.75-17.34 52.18 52.18 0 0 1 29.44-6.84q22.08 1.58 36.8 10.52a72.64 72.64 0 0 1 23.39 22.07 80.77 80.77 0 0 1 11.82 30 138.79 138.79 0 0 1 2.07 34.13z m161.11-18.13A79.36 79.36 0 0 1 739 610.7a141.35 141.35 0 0 1-14.19 17.35q-12.09 12.09-22.87 21t-26.54 20.5a116.16 116.16 0 0 1-17.61 10q-9.19 4.2-13.93 4.21-4.74 0.53-10.25-3.95t-13.41-10.24a38.41 38.41 0 0 1-6.83-6.3l-6.31-5.79-6.3-6.3a111.79 111.79 0 0 0 9.46-23.66 154.63 154.63 0 0 0 4.73-26 114.19 114.19 0 0 0-1.58-32.33 125 125 0 0 0-9.72-28.38 115.78 115.78 0 0 0-11.83-19.45 73.24 73.24 0 0 0-14.72-14.72q6.84 0 13.14 0.53 5.79 0.53 12.09 1.57a46.07 46.07 0 0 1 11 3.16 72.78 72.78 0 0 1 10 5.52q5.25 3.42 10 6.57l10.51 8.41a54.19 54.19 0 0 1 6.83-5.78 185.68 185.68 0 0 1 18.4-12.09 50 50 0 0 1 14.74-5.53 61.85 61.85 0 0 1 17.08-1.32 64.12 64.12 0 0 1 17.11 3.41 33.84 33.84 0 0 1 14.2 9.2q16.29 17.34 19.45 33.9a68.2 68.2 0 0 1-0.82 31.02z" fill="#FF7196" p-id="1457"></path><path d="M747 332.86H476.81C318.51 413.48 210.09 578 210.09 767.8a486.11 486.11 0 0 0 39.52 192.63H852c52.5 0 95.46-42.95 95.46-95.45V533.31c-0.01-110.25-90.22-200.45-200.46-200.45zM589.72 603.34a115.89 115.89 0 0 1-6.84 33.12 183.59 183.59 0 0 1-13.88 29.7 198.17 198.17 0 0 1-17.61 25.49 282.59 282.59 0 0 1-18.92 21q-14.19 14.72-30 28.12t-30 23.65a228.74 228.74 0 0 1-25.5 16.3q-11.29 6-16.56 6-6.3 0-16.55-6.3A220.22 220.22 0 0 1 391 763.93q-12.61-10.26-26.81-23.66t-28.36-27.07q-8.94-8.93-20-20.24a219.78 219.78 0 0 1-20.76-24.7 150.69 150.69 0 0 1-16.56-29.44 93.93 93.93 0 0 1-7.36-34.43 98.61 98.61 0 0 1 3.68-33.9 92.89 92.89 0 0 1 13.93-28.65 84.42 84.42 0 0 1 22.61-21.29 90.76 90.76 0 0 1 30.22-12.35 53.75 53.75 0 0 1 33.41 3.42 153.19 153.19 0 0 1 30.22 17.08 185.14 185.14 0 0 1 30 27.86 160.12 160.12 0 0 1 25.23-25.76 173.29 173.29 0 0 1 25.75-17.34 52.18 52.18 0 0 1 29.44-6.84q22.08 1.58 36.8 10.52a72.64 72.64 0 0 1 23.39 22.07 80.77 80.77 0 0 1 11.82 30 138.79 138.79 0 0 1 2.07 34.13z m161.11-18.13A79.36 79.36 0 0 1 739 610.7a141.35 141.35 0 0 1-14.19 17.35q-12.09 12.09-22.87 21t-26.54 20.5a116.16 116.16 0 0 1-17.61 10q-9.19 4.2-13.93 4.21-4.74 0.53-10.25-3.95t-13.41-10.24a38.41 38.41 0 0 1-6.83-6.3l-6.31-5.79-6.3-6.3a111.79 111.79 0 0 0 9.46-23.66 154.63 154.63 0 0 0 4.73-26 114.19 114.19 0 0 0-1.58-32.33 125 125 0 0 0-9.72-28.38 115.78 115.78 0 0 0-11.83-19.45 73.24 73.24 0 0 0-14.72-14.72q6.84 0 13.14 0.53 5.79 0.53 12.09 1.57a46.07 46.07 0 0 1 11 3.16 72.78 72.78 0 0 1 10 5.52q5.25 3.42 10 6.57l10.51 8.41a54.19 54.19 0 0 1 6.83-5.78 185.68 185.68 0 0 1 18.4-12.09 50 50 0 0 1 14.74-5.53 61.85 61.85 0 0 1 17.08-1.32 64.12 64.12 0 0 1 17.11 3.41 33.84 33.84 0 0 1 14.2 9.2q16.29 17.34 19.45 33.9a68.2 68.2 0 0 1-0.82 31.02z" fill="#FF5F89" p-id="1458"></path><path d="M585.47 506.84c1.61 0.08 3.21 0.18 4.77 0.31q5.79 0.53 12.09 1.57a46.07 46.07 0 0 1 11 3.16 72.78 72.78 0 0 1 10 5.52q5.25 3.42 10 6.57l10.51 8.41a54.19 54.19 0 0 1 6.83-5.78 185.68 185.68 0 0 1 18.4-12.09 50 50 0 0 1 14.74-5.51 61.85 61.85 0 0 1 17.08-1.32 64.12 64.12 0 0 1 17.11 3.41 33.84 33.84 0 0 1 14.2 9.2q16.29 17.34 19.45 33.9a68.2 68.2 0 0 1-0.79 31A79.36 79.36 0 0 1 739 610.7a141.35 141.35 0 0 1-14.19 17.35q-12.09 12.09-22.87 21t-26.54 20.5a116.16 116.16 0 0 1-17.61 10q-9.19 4.2-13.93 4.21-4.74 0.53-10.25-3.95t-13.41-10.24a38.41 38.41 0 0 1-6.83-6.3l-6.31-5.79-6.3-6.3a111.79 111.79 0 0 0 9.46-23.66 154.63 154.63 0 0 0 4.73-26 114.19 114.19 0 0 0-1.58-32.33 125 125 0 0 0-9.72-28.38 115.78 115.78 0 0 0-11.83-19.45 77.57 77.57 0 0 0-10.38-11.21q-9 7.44-17.67 15.36a69 69 0 0 1 12 13.72 80.77 80.77 0 0 1 11.82 30 138.79 138.79 0 0 1 2.11 34.17 115.89 115.89 0 0 1-6.84 33.12A183.59 183.59 0 0 1 569 666.16a198.17 198.17 0 0 1-17.61 25.49 282.59 282.59 0 0 1-18.92 21q-14.19 14.72-30 28.12t-30 23.65a228.74 228.74 0 0 1-25.5 16.3q-11.29 6-16.56 6a20.34 20.34 0 0 1-6.84-1.42A452.94 452.94 0 0 0 430 960.43h422c52.5 0 95.46-42.95 95.46-95.45V533.31a199.3 199.3 0 0 0-43.3-124.06q-18.45-1.51-37.29-1.53a447 447 0 0 0-281.4 99.12z" fill="#FF4D7C" p-id="1459"></path><path d="M681 934.57q0 13 1 25.86h170c52.5 0 95.46-42.95 95.46-95.45V600.13C794.86 634.92 681 771.44 681 934.57z" fill="#FF3369" p-id="1460"></path><path d="M284.77 389.81c8 11.06-31.26 26.48-72.16 55.9s-68 61.69-76 50.63 13.82-50.74 54.72-80.15 85.48-37.45 93.44-26.38z" fill="#FFFFFF" p-id="1461"></path></svg>