<?xml version="1.0" standalone="no"?><!DOCTYPE svg PUBLIC "-//W3C//DTD SVG 1.1//EN" "http://www.w3.org/Graphics/SVG/1.1/DTD/svg11.dtd"><svg t="1686120019820" class="icon" viewBox="0 0 1024 1024" version="1.1" xmlns="http://www.w3.org/2000/svg" p-id="39655" xmlns:xlink="http://www.w3.org/1999/xlink" width="200" height="200"><path d="M509.2864 517.7856m-450.816 0a450.816 450.816 0 1 0 901.632 0 450.816 450.816 0 1 0-901.632 0Z" fill="#8486F8" p-id="39656"></path><path d="M450.9184 232.704m-86.1696 0a86.1696 86.1696 0 1 0 172.3392 0 86.1696 86.1696 0 1 0-172.3392 0Z" fill="#FFFFFF" p-id="39657"></path><path d="M700.0064 444.416m-72.6016 0a72.6016 72.6016 0 1 0 145.2032 0 72.6016 72.6016 0 1 0-145.2032 0Z" fill="#FFFFFF" p-id="39658"></path><path d="M317.2352 807.8336c-19.6608-94.3104-33.792-317.0304-9.9328-382.6176-13.2608 27.8528-42.752 118.0672-56.3712 152.1152-7.9872 20.0192-40.9088 13.1584-44.1856-8.1408-7.3216-47.7696-10.5984-149.8112 93.6448-269.5168 16.6912-21.2992 48.7424-15.2576 67.8912 9.5744s45.056 49.3056 107.4176 37.9392c19.5072-4.2496 43.9808-16.6912 64.2048 38.656s49.664 142.5408 137.5744 160.9728c21.248 1.9456 71.68-4.864 119.1936-33.4336 8.6528-5.2224 19.712-4.1984 27.0336 2.7648l0.4096 0.3584c8.448 8.0384 9.1136 21.0944 1.792 30.1568-12.8 15.8208-36.4032 35.328-65.4336 52.5824-46.1312 27.392-49.664 43.264-29.7984 97.1776 19.8656 53.9136 60.2624 92.928 35.4816 114.176-24.832 21.2992-65.2288 5.6832-121.2928-114.176-2.1504 54.6304 16.4352 127.1296-17.4592 133.5296-33.9456 6.4-69.0176-34.56-70.0928-157.952-1.0752-28.7232 5.3248-79.7696 5.3248-79.7696s-62.7712-75.52-72.3456-130.8672c-11.2128 31.2832-37.9904 195.4816-43.4176 335.104-1.3312 33.7408-27.9552 60.9792-61.696 62.5664l-1.4848 0.0512c-31.744 1.5872-59.9552-20.1216-66.4576-51.2512z" fill="#FFFFFF" p-id="39659"></path></svg>