<?xml version="1.0" standalone="no"?><!DOCTYPE svg PUBLIC "-//W3C//DTD SVG 1.1//EN" "http://www.w3.org/Graphics/SVG/1.1/DTD/svg11.dtd"><svg t="1686121123257" class="icon" viewBox="0 0 1024 1024" version="1.1" xmlns="http://www.w3.org/2000/svg" p-id="2060" xmlns:xlink="http://www.w3.org/1999/xlink" width="200" height="200"><path d="M7.42029 7.642899m133.565217 0l742.028986 0q133.565217 0 133.565217 133.565217l0 742.028985q0 133.565217-133.565217 133.565218l-742.028986 0q-133.565217 0-133.565217-133.565218l0-742.028985q0-133.565217 133.565217-133.565217Z" fill="#30B280" p-id="2061"></path><path d="M795.751884 637.69971c44.521739-46.747826 76.503188-138.314203 76.503188-199.828406 0-200.347826-147.663768-311.281159-310.687536-311.281159S266.314203 265.943188 266.314203 437.797101L155.826087 571.362319a20.628406 20.628406 0 0 0 13.356522 32.500869l65.150145 23.670725v105.442319a62.182029 62.182029 0 0 0 62.47884 62.107826h127.035363v108.633043s114.346667-22.26087 194.485797-23.81913c86.668986-1.632464 177.41913 23.81913 177.41913 23.81913z m-30.497391-53.203478l-39.179131 39.17913a24.190145 24.190145 0 0 1-34.05913 0L652.985507 584.496232a24.041739 24.041739 0 0 1 0-34.059131l39.179131-39.253333a24.190145 24.190145 0 0 1 34.05913 0l39.179131 39.253333a24.041739 24.041739 0 0 1-0.148406 34.059131zM551.030725 297.627826h135.791304a59.362319 59.362319 0 0 1 59.362319 59.362319v78.803478a20.99942 20.99942 0 1 1-41.998841 0V356.915942a17.363478 17.363478 0 0 0-17.289275-17.289275H551.030725a20.99942 20.99942 0 1 1 0-41.998841z m-38.659711 136.830145a17.437681 17.437681 0 0 1 24.56116-0.742029l22.260869 21.296232 54.687537-54.761739a17.363478 17.363478 0 0 1 24.561159 24.561159l-66.782609 66.782609-1.335652 1.03884-1.261449 1.038841-1.78087 0.964638a10.388406 10.388406 0 0 1-1.261449 0.667826l-2.151884 0.667826h-1.113043a25.377391 25.377391 0 0 1-3.413334 0 16.695652 16.695652 0 0 1-3.264927 0h-0.964638a18.253913 18.253913 0 0 1-2.151884-0.667826 5.936232 5.936232 0 0 1-1.187246-0.593623 9.943188 9.943188 0 0 1-1.78087-0.890435l-1.113043-0.890435-1.409855-1.038841-34.875363-32.871884a17.363478 17.363478 0 0 1-0.222609-24.561159z m-164.285217-65.892174v-62.775652A24.041739 24.041739 0 0 1 372.127536 281.971014H452.637681a24.115942 24.115942 0 0 1 24.115942 24.04174v62.775652A24.115942 24.115942 0 0 1 452.637681 392.681739H372.127536a24.041739 24.041739 0 0 1-24.041739-24.115942z m39.995362 167.030725V456.644638a20.99942 20.99942 0 0 1 41.998841 0v78.951884a17.363478 17.363478 0 0 0 17.289275 17.289275h135.791305a20.99942 20.99942 0 1 1 0 41.998841h-135.791305a59.362319 59.362319 0 0 1-59.288116-59.288116z" fill="#FFFFFF" p-id="2062"></path></svg>