<?xml version="1.0" standalone="no"?><!DOCTYPE svg PUBLIC "-//W3C//DTD SVG 1.1//EN" "http://www.w3.org/Graphics/SVG/1.1/DTD/svg11.dtd"><svg t="1686121838357" class="icon" viewBox="0 0 1024 1024" version="1.1" xmlns="http://www.w3.org/2000/svg" p-id="2961" xmlns:xlink="http://www.w3.org/1999/xlink" width="200" height="200"><path d="M861.64 247.53c-35.79-55.89-91.77-88.64-151.12-88.6l-400.86 0.28c-58.17 0-109.09 34.42-149 85.66-108.13 138.92-97 408.59-97 408.59C69.4 874.57 232.2 864.64 232.2 864.64c140.66-1.28 174.47-133.25 182.45-188 2-13.51 11.84-23.41 23.45-23.41h129.06c11.55 0 21.46 9.79 23.42 23.22C619.34 873.36 768.86 865 768.86 865c174.7 0.05 190.92-210.26 190.92-210.26 8.39-198.36-44.44-323.34-98.14-407.21zM401.14 397A28.15 28.15 0 0 1 373 425.18h-54.7v54.69A28.15 28.15 0 0 1 290.15 508 28.16 28.16 0 0 1 262 479.87v-54.69h-54.68A28.15 28.15 0 0 1 179.17 397a28.15 28.15 0 0 1 28.15-28.15H262V314.2a28.15 28.15 0 0 1 28.15-28.15 28.15 28.15 0 0 1 28.15 28.15v54.68H373A28.15 28.15 0 0 1 401.14 397z m355.29 88.41a88.41 88.41 0 1 1 88.4-88.41 88.41 88.41 0 0 1-88.4 88.44z" fill="#DB90F6" p-id="2962"></path><path d="M880.18 278.41a371.64 371.64 0 0 0-250.6-96.73c-130 0-244.52 66.54-311.28 167.43v19.77H373A28.15 28.15 0 0 1 401.14 397 28.15 28.15 0 0 1 373 425.18h-54.7v54.69A28.15 28.15 0 0 1 290.15 508a28.16 28.16 0 0 1-27.35-21.49A373.74 373.74 0 0 0 358 810.3c38.52-43.25 52-101.66 56.69-133.68 2-13.51 11.84-23.41 23.45-23.41h129.02c11.55 0 21.46 9.79 23.42 23.22C619.34 873.36 768.86 865 768.86 865c174.7 0.05 190.92-210.26 190.92-210.26 7.41-175.37-33.02-293.38-79.6-376.33z m-123.75 207a88.41 88.41 0 1 1 88.4-88.41 88.41 88.41 0 0 1-88.4 88.44z" fill="#D186F7" p-id="2963"></path><path d="M757.65 308.64a88.37 88.37 0 1 1-42.49 10.2c-146.23 44.33-254.46 176-263.94 334.37h115.94c11.55 0 21.46 9.79 23.42 23.22C619.34 873.36 768.86 865 768.86 865c174.7 0.05 190.92-210.26 190.92-210.26 6.52-154.22-24-264.07-63.07-344.74a376.77 376.77 0 0 0-139.06-1.38z" fill="#C276F6" p-id="2964"></path><path d="M593.3 692.6C627.66 872.88 768.86 865 768.86 865c174.7 0.05 190.92-210.26 190.92-210.26 3.18-75.31-2.46-140-13.62-196q-3.33-0.06-6.68-0.06c-156.82 0.05-291.03 96.83-346.18 233.92z" fill="#AF64F6" p-id="2965"></path><path d="M613.07 265.83c0.18 13.8-41.31 3.83-92.31 4.49s-92.22 11.71-92.4-2.08 40.91-34.07 91.92-34.73 92.61 18.49 92.79 32.32z" fill="#FFFFFF" p-id="2966"></path></svg>