<?xml version="1.0" standalone="no"?><!DOCTYPE svg PUBLIC "-//W3C//DTD SVG 1.1//EN" "http://www.w3.org/Graphics/SVG/1.1/DTD/svg11.dtd"><svg t="1686110703834" class="icon" viewBox="0 0 1024 1024" version="1.1" xmlns="http://www.w3.org/2000/svg" p-id="5075" xmlns:xlink="http://www.w3.org/1999/xlink" width="200" height="200"><path d="M511.8464 517.7856m-450.816 0a450.816 450.816 0 1 0 901.632 0 450.816 450.816 0 1 0-901.632 0Z" fill="#59ADF8" p-id="5076"></path><path d="M302.8992 421.4784H237.9264c-15.3088 0-27.7504-12.3904-27.7504-27.7504s12.3904-27.7504 27.7504-27.7504h64.9728c15.3088 0 27.7504 12.3904 27.7504 27.7504s-12.4416 27.7504-27.7504 27.7504zM302.8992 668.7744H237.9264c-15.3088 0-27.7504-12.3904-27.7504-27.7504s12.3904-27.7504 27.7504-27.7504h64.9728c15.3088 0 27.7504 12.3904 27.7504 27.7504s-12.4416 27.7504-27.7504 27.7504z" fill="#FFFFFF" p-id="5077"></path><path d="M707.4816 224.8192H311.5008c-30.976 0-56.1152 25.1392-56.1152 56.1152v50.0736h43.9808c35.1744 0 63.6928 28.5184 63.6928 63.6928 0 35.1744-28.5184 63.6928-63.6928 63.6928h-43.9808v118.3232h43.9808c35.1744 0 63.6928 28.5184 63.6928 63.6928 0 35.1744-28.5184 63.6928-63.6928 63.6928h-43.9808v47.0528c0 30.976 25.1392 56.1152 56.1152 56.1152h395.9808c31.0272 0 56.1152-25.1392 56.1152-56.1152V280.9856c0-31.0272-25.1392-56.1664-56.1152-56.1664z m-46.4896 264.704l-48.9984 47.7696c-3.84 3.7376-5.632 9.1648-4.7104 14.4896l11.5712 67.4304c2.304 13.3632-11.7248 23.552-23.7568 17.2544l-60.5696-31.8464c-4.7616-2.5088-10.4448-2.5088-15.2064 0l-60.5696 31.8464c-11.9808 6.2976-26.0096-3.8912-23.7568-17.2544l11.5712-67.4304c0.9216-5.3248-0.8704-10.7008-4.7104-14.4896l-48.9984-47.7696c-9.728-9.472-4.352-25.9584 9.0624-27.904l67.7376-9.8304c5.3248-0.768 9.9328-4.1472 12.3392-8.96l30.2592-61.3376c5.9904-12.1856 23.3472-12.1856 29.3376 0l30.2592 61.3376c2.4064 4.8128 7.0144 8.192 12.3392 8.96l67.7376 9.8304c13.4144 1.9456 18.7904 18.432 9.0624 27.904z" fill="#FFFFFF" p-id="5078"></path></svg>