<svg xmlns="http://www.w3.org/2000/svg" xmlns:xlink="http://www.w3.org/1999/xlink" fill="none" version="1.1" width="48" height="48" viewBox="0 0 48 48"><defs><mask id="master_svg0_6941_54473"><g style="mix-blend-mode:passthrough"><rect x="0" y="0" width="47.999996185302734" height="47.999996185302734" rx="10" fill="#FFFFFF" fill-opacity="1"/></g></mask></defs><g style="mix-blend-mode:passthrough"><g style="mix-blend-mode:passthrough" mask="url(#master_svg0_6941_54473)"><g style="mix-blend-mode:passthrough"><rect x="5.95458984375" y="6.115234375" width="36.0908203125" height="36.0908203125" rx="18.04541015625" fill="#28C06C" fill-opacity="1"/></g><g style="mix-blend-mode:passthrough"><g style="mix-blend-mode:passthrough"><rect x="11.412109375" y="11.0966796875" width="25.80615234375" height="25.806640625" rx="0" fill="#D8D8D8" fill-opacity="0"/></g><g><path d="M31.488470863342286,17.0956229845047C30.351270863342286,14.7572229845047,27.474670863342283,12.7557318955047,24.217870863342284,12.7552732524887C22.508900863342284,12.754815146504699,19.898130863342285,13.3415339845047,17.947150863342284,15.7007829845047C16.644284863342286,17.2762229845047,16.205641863342287,19.1200329845047,16.480194763342286,20.9588029845047C16.668806863342287,22.222082984504702,17.372377863342287,23.888772984504698,18.379150863342286,24.9429729845047C18.758660863342286,22.2704329845047,20.166260863342284,20.1685629845047,22.011820863342287,18.6236129845047C25.344040863342286,16.0778029845047,28.901570863342286,16.2219629845047,31.488470863342286,17.0956229845047Z" fill-rule="evenodd" fill="#FFFFFF" fill-opacity="1"/></g><g><path d="M34.08972923034668,21.10533736328125C32.05098923034668,18.45937136328125,28.52670923034668,17.71909736328125,25.34528923034668,18.89895236328125C25.44796023034668,18.92989236328125,25.55040223034668,18.96037436328125,25.65261523034668,18.99498136328125C30.36286923034668,20.59974736328125,32.90855923034668,25.70993736328125,31.33870923034668,30.40869736328125C30.92091923034668,31.65869736328125,30.25217923034668,32.75189736328125,29.40972923034668,33.65559736328125C30.42451923034668,33.374597363281254,31.46314923034668,32.97289736328125,32.35417923034668,32.28619736328125C35.941489230346676,29.52199736328125,36.64758923034668,24.42488736328125,34.08972923034668,21.10533736328125Z" fill-rule="evenodd" fill="#FFFFFF" fill-opacity="1"/></g><g><path d="M24.21109323616028,29.55803774658203C23.49539323616028,29.55803774658203,22.802123236160277,29.475757746582033,22.13522323616028,29.32678774658203C22.05386323616028,29.310057746582032,21.969983236160278,29.30019774658203,21.882893236160278,29.30409774658203C21.68534323616028,29.31257774658203,21.508193236160277,29.38087774658203,21.342733236160278,29.48698774658203L19.14309323616028,30.89717774658203C19.08145323616028,30.93636774658203,19.02186323616028,30.96707774658203,18.94715323616028,30.97028774658203C18.757163236160277,30.97853774658203,18.59674323616028,30.82979774658203,18.58849323616028,30.63910774658203C18.58482323616028,30.55293774658203,18.61530323616028,30.46607774658203,18.633183236160278,30.38333774658203C18.64395323616028,30.33383774658203,18.877023236160277,29.27659774658203,19.02232323616028,28.61699774658203C19.03928323616028,28.54273774658203,19.052573236160278,28.47122774658203,19.04936323616028,28.39491774658203C19.03950323616028,28.16549774658203,18.91896323616028,27.967247746582032,18.74272323616028,27.848527746582032C16.42460323616028,26.26759774658203,14.834583236160277,23.78343774658203,14.484863236160278,21.22937774658203C13.901836236160278,22.145896746582032,13.591303236160279,22.874257746582032,13.287415236160278,23.936077746582033C12.154139236160278,27.89803774658203,14.634513236160279,32.644477746582034,18.68222323616028,33.97397774658203C23.337293236160278,35.50287774658203,27.77909323616028,33.78677774658203,29.31349323616028,29.82755774658203C29.49999323616028,29.346727746582033,29.70399323616028,28.53013774658203,29.746193236160277,27.85173774658203C28.11599323616028,29.05107774658203,26.39009323616028,29.55803774658203,24.21109323616028,29.55803774658203Z" fill-rule="evenodd" fill="#FFFFFF" fill-opacity="1"/></g></g></g></g></svg>