<?xml version="1.0" standalone="no"?><!DOCTYPE svg PUBLIC "-//W3C//DTD SVG 1.1//EN" "http://www.w3.org/Graphics/SVG/1.1/DTD/svg11.dtd"><svg t="1686121155744" class="icon" viewBox="0 0 1024 1024" version="1.1" xmlns="http://www.w3.org/2000/svg" p-id="3148" xmlns:xlink="http://www.w3.org/1999/xlink" width="200" height="200"><path d="M591.397101 771.710145H344.82087a18.550725 18.550725 0 0 0-13.133913 31.684638 62.849855 62.849855 0 0 0 16.844057 2.374492h253.031885A18.550725 18.550725 0 0 0 591.397101 771.710145zM528.695652 500.201739l-60.623768 54.01971-60.549565-54.01971c-55.206957 20.776812-94.015072 69.157101-95.053913 125.625507v22.26087h311.652174v-22.26087c-1.409855-56.468406-40.292174-104.848696-95.424928-125.625507z" fill="#30B280" p-id="3149"></path><path d="M468.086328 385.101612m-20.778037 88.034531a90.453333 90.453333 0 1 0 41.556074-176.069062 90.453333 90.453333 0 1 0-41.556074 176.069062Z" fill="#30B280" p-id="3150"></path><path d="M560.306087 736.315362a18.550725 18.550725 0 0 0 0-37.101449H375.911884a18.550725 18.550725 0 1 0 0 37.101449z" fill="#30B280" p-id="3151"></path><path d="M883.014493 7.42029H140.985507A133.565217 133.565217 0 0 0 7.42029 140.985507v742.028986a133.565217 133.565217 0 0 0 133.565217 133.565217h742.028986a133.565217 133.565217 0 0 0 133.565217-133.565217V140.985507a133.565217 133.565217 0 0 0-133.565217-133.565217z m-36.582029 713.98029a101.509565 101.509565 0 0 1-101.286957 101.361159h-2.151884a59.362319 59.362319 0 0 1-59.362319 56.023189H242.717681a59.362319 59.362319 0 0 1-59.362319-59.362319V289.762319a59.362319 59.362319 0 0 1 59.362319-59.362319h4.823189A101.361159 101.361159 0 0 1 348.753623 134.975072h396.614493a101.435362 101.435362 0 0 1 101.286956 101.286957z" fill="#30B280" p-id="3152"></path><path d="M745.145507 174.376812H348.753623a61.95942 61.95942 0 0 0-61.588406 56.023188h396.614493a59.362319 59.362319 0 0 1 59.362319 59.362319v493.597681h2.003478a61.95942 61.95942 0 0 0 61.885218-61.95942V236.262029a61.95942 61.95942 0 0 0-61.885218-61.885217z" fill="#30B280" p-id="3153"></path></svg>