<?xml version="1.0" standalone="no"?><!DOCTYPE svg PUBLIC "-//W3C//DTD SVG 1.1//EN" "http://www.w3.org/Graphics/SVG/1.1/DTD/svg11.dtd"><svg t="1686121138631" class="icon" viewBox="0 0 1024 1024" version="1.1" xmlns="http://www.w3.org/2000/svg" p-id="2681" xmlns:xlink="http://www.w3.org/1999/xlink" width="200" height="200"><path d="M883.682319 7.42029h-742.028986a133.565217 133.565217 0 0 0-133.565217 133.565217v742.028986a133.565217 133.565217 0 0 0 133.565217 133.565217h742.028986a133.565217 133.565217 0 0 0 133.565217-133.565217V140.985507a133.565217 133.565217 0 0 0-133.565217-133.565217zM509.551304 140.985507a144.695652 144.695652 0 1 1-144.695652 144.695652A144.695652 144.695652 0 0 1 509.551304 140.985507zM247.244058 675.246377c1.632464-95.202319 66.782609-176.677101 160.055652-211.70087l102.251594 90.972754 102.028986-90.972754C704.927536 498.569275 770.003478 580.044058 771.710145 675.246377v37.769275H247.244058z m654.692174 185.507246H122.063768a27.603478 27.603478 0 0 1-0.890435-6.455652c0-55.726377 174.970435-100.915942 390.826667-100.915942s390.826667 45.189565 390.826667 100.915942a27.603478 27.603478 0 0 1-0.890435 6.455652z" fill="#30B280" p-id="2682"></path></svg>