<?xml version="1.0" standalone="no"?><!DOCTYPE svg PUBLIC "-//W3C//DTD SVG 1.1//EN" "http://www.w3.org/Graphics/SVG/1.1/DTD/svg11.dtd"><svg t="1686124326540" class="icon" viewBox="0 0 1024 1024" version="1.1" xmlns="http://www.w3.org/2000/svg" p-id="1029" xmlns:xlink="http://www.w3.org/1999/xlink" width="200" height="200"><path d="M512 512m-464 0a464 464 0 1 0 928 0 464 464 0 1 0-928 0Z" p-id="1030"></path><path d="M752 363.36a208 208 0 0 1-49.44 50.88v12.8a281.28 281.28 0 0 1-11.52 79.04 299.04 299.04 0 0 1-91.36 139.68 251.52 251.52 0 0 1-78.56 44.48 288 288 0 0 1-98.4 16A273.28 273.28 0 0 1 272 662.72a211.36 211.36 0 0 0 23.68 1.28 193.12 193.12 0 0 0 122.24-42.08 96 96 0 0 1-57.28-19.68 94.88 94.88 0 0 1-34.72-48 130.72 130.72 0 0 0 18.56 1.44 102.88 102.88 0 0 0 25.92-3.36 96 96 0 0 1-56.48-33.92 94.4 94.4 0 0 1-22.4-62.56v-1.28a94.4 94.4 0 0 0 44.48 12.48 98.4 98.4 0 0 1-30.4-131.52 276.8 276.8 0 0 0 89.6 72.64 272 272 0 0 0 113.12 30.24 110.08 110.08 0 0 1-2.4-22.4 98.4 98.4 0 0 1 170.24-67.36 192 192 0 0 0 62.4-23.68 96 96 0 0 1-43.2 54.24 196.64 196.64 0 0 0 56.64-16z" fill="#FFFFFF" p-id="1031"></path></svg>