<?xml version="1.0" standalone="no"?><!DOCTYPE svg PUBLIC "-//W3C//DTD SVG 1.1//EN" "http://www.w3.org/Graphics/SVG/1.1/DTD/svg11.dtd"><svg t="1686121198499" class="icon" viewBox="0 0 1024 1024" version="1.1" xmlns="http://www.w3.org/2000/svg" p-id="4234" xmlns:xlink="http://www.w3.org/1999/xlink" width="200" height="200"><path d="M627.237101 393.275362H518.826667a18.550725 18.550725 0 0 0-17.066667 11.353044 17.808696 17.808696 0 0 0-2.522899 9.052753V601.785507a18.550725 18.550725 0 0 0 37.10145 0v-54.168116h90.89855a77.171014 77.171014 0 1 0 0-154.267826zM667.826087 471.336812v-0.890435a40.885797 40.885797 0 0 1-40.811594 40.069565H537.377391V430.376812h89.85971A40.885797 40.885797 0 0 1 667.826087 470.446377v-0.816232zM353.354203 490.406957l64.630725-65.446957a18.550725 18.550725 0 1 0-26.342029-26.11942L274.550725 517.045797V411.90029a18.550725 18.550725 0 1 0-37.10145 0V601.785507a18.550725 18.550725 0 0 0 37.10145 0v-31.981449l51.942029-52.758261L412.271304 612.915942a18.550725 18.550725 0 1 0 29.68116-22.26087zM684.150725 206.58087L577.075942 287.165217l-112.491594-51.942029a18.624928 18.624928 0 0 0-19.218551 2.30029L336.13913 323.747246a18.476522 18.476522 0 0 0 11.427247 33.094493 18.253913 18.253913 0 0 0 11.427246-3.932753l100.396522-78.877682L571.362319 325.528116a18.253913 18.253913 0 0 0 7.42029 1.632464h2.968116a13.801739 13.801739 0 0 0 2.893913-0.742029l0.964637-0.371015 2.003479-0.964637 1.113043-0.742029 0.890435-0.519421 116.869565-87.55942a18.550725 18.550725 0 0 0-22.260869-29.681159zM768.296812 393.275362a18.550725 18.550725 0 0 0-18.550725 18.550725v189.811014a18.550725 18.550725 0 0 0 37.101449 0V411.90029a18.550725 18.550725 0 0 0-18.550724-18.624928z" fill="#FE7878" p-id="4235"></path><path d="M883.014493 7.42029H140.985507A133.565217 133.565217 0 0 0 7.42029 140.985507v742.028986a133.565217 133.565217 0 0 0 133.565217 133.565217h742.028986a133.565217 133.565217 0 0 0 133.565217-133.565217V140.985507a133.565217 133.565217 0 0 0-133.565217-133.565217zM686.673623 867.506087H338.884638a22.26087 22.26087 0 0 1-18.699131-34.430145l51.942029-79.026087h281.971015l51.942029 79.026087a22.26087 22.26087 0 0 1-19.366957 34.430145z m218.601739-207.768116a59.362319 59.362319 0 0 1-59.362319 59.362319H178.086957a59.362319 59.362319 0 0 1-59.362319-59.362319V215.188406a59.362319 59.362319 0 0 1 59.362319-59.362319h667.826086a59.362319 59.362319 0 0 1 59.362319 59.362319z" fill="#FE7878" p-id="4236"></path></svg>