<?xml version="1.0" standalone="no"?><!DOCTYPE svg PUBLIC "-//W3C//DTD SVG 1.1//EN" "http://www.w3.org/Graphics/SVG/1.1/DTD/svg11.dtd"><svg t="1686121120176" class="icon" viewBox="0 0 1024 1024" version="1.1" xmlns="http://www.w3.org/2000/svg" p-id="1906" xmlns:xlink="http://www.w3.org/1999/xlink" width="200" height="200"><path d="M882.198261 7.42029h-742.028986a133.565217 133.565217 0 0 0-133.565217 133.565217v742.028986a133.565217 133.565217 0 0 0 133.565217 133.565217h742.028986a133.565217 133.565217 0 0 0 133.565217-133.565217V140.985507a133.565217 133.565217 0 0 0-133.565217-133.565217zM626.346667 319.072464a18.550725 18.550725 0 0 1 25.377391-6.604058 222.089275 222.089275 0 0 1 108.929855 190.553043 18.550725 18.550725 0 0 1-37.101449 0 184.765217 184.765217 0 0 0-90.675942-158.645797 18.550725 18.550725 0 0 1-6.529855-25.303188zM638.144928 681.256812a18.550725 18.550725 0 0 1-6.233044 25.525797 221.050435 221.050435 0 0 1-241.975652-8.459131 18.550725 18.550725 0 1 1 21.51884-30.497391 183.874783 183.874783 0 0 0 201.312464 7.42029 18.550725 18.550725 0 0 1 25.377392 6.010435z m-205.096812-178.086957a83.626667 83.626667 0 1 1 83.70087 83.404058 83.626667 83.626667 0 0 1-83.626667-83.626667z m84.368696-363.371594a85.481739 85.481739 0 1 1-85.48174 85.481739 85.630145 85.630145 0 0 1 85.48174-85.481739zM420.211014 320.556522a18.550725 18.550725 0 0 1-6.15884 25.525797A182.613333 182.613333 0 0 0 326.492754 502.947246a18.550725 18.550725 0 0 1-37.10145 0 219.714783 219.714783 0 0 1 105.293913-188.549565 18.624928 18.624928 0 0 1 25.525797 6.158841zM134.307246 471.262609a18.550725 18.550725 0 1 1 31.165218-20.108986l13.653333 21.147826A350.311884 350.311884 0 0 1 334.358261 222.608696a18.550725 18.550725 0 1 1 20.331594 31.016811 312.987826 312.987826 0 0 0-140.985507 275.589565 18.550725 18.550725 0 0 1-18.17971 22.26087 18.328116 18.328116 0 0 1-13.653334-6.233043 11.501449 11.501449 0 0 1-1.780869-2.003479z m129.929276 265.720579A85.481739 85.481739 0 1 1 349.718261 651.501449a85.555942 85.555942 0 0 1-85.481739 85.481739zM700.846377 793.971014a17.215072 17.215072 0 0 1-1.409855 4.971595l-36.433623 75.909565a18.476522 18.476522 0 0 1-16.769856 10.536812 18.995942 18.995942 0 0 1-7.93971-1.78087 18.476522 18.476522 0 0 1-8.755942-24.709565l16.398841-34.430145a348.753623 348.753623 0 0 1-302.228406-22.26087 18.550725 18.550725 0 1 1 18.476522-32.129855 312.765217 312.765217 0 0 0 313.062029-0.51942 18.476522 18.476522 0 0 1 25.971014 24.041739z m66.782609-54.390724a85.481739 85.481739 0 1 1 85.184927-85.852754 85.630145 85.630145 0 0 1-85.481739 85.481739z m104.774492-203.835362a18.550725 18.550725 0 0 1-37.101449-2.30029 312.542609 312.542609 0 0 0-139.575652-280.190145 18.624928 18.624928 0 0 1-5.268406-25.748406 18.847536 18.847536 0 0 1 16.250435-8.236522h86.372174a18.550725 18.550725 0 0 1 0 37.101449h-33.762319a349.495652 349.495652 0 0 1 112.788406 279.002899z" fill="#FC937C" p-id="1907"></path></svg>