<?xml version="1.0" standalone="no"?><!DOCTYPE svg PUBLIC "-//W3C//DTD SVG 1.1//EN" "http://www.w3.org/Graphics/SVG/1.1/DTD/svg11.dtd"><svg t="1686110684461" class="icon" viewBox="0 0 1024 1024" version="1.1" xmlns="http://www.w3.org/2000/svg" p-id="4925" xmlns:xlink="http://www.w3.org/1999/xlink" width="200" height="200"><path d="M619.008 162.816C936.96 293.376 936.96 538.624 936.96 538.624c-158.72-192-423.936-161.28-423.936-161.28-14.848 299.52 317.952 645.12 317.952 645.12H619.52c-28.16-137.216-98.816-247.808-189.44-295.936-24.576-114.688-32.256-231.936-23.04-349.184-205.312 80.896-265.216 268.8-265.216 268.8-46.592-282.112 211.968-375.808 211.968-375.808-172.544-40.448-265.216 161.28-265.216 161.28-33.28-309.248 265.216-268.8 265.216-268.8L407.552 1.536l105.984 107.52c242.688-168.96 371.2 53.76 371.2 53.76-113.664-53.76-265.728 0-265.728 0z" fill="#3366FF" p-id="4926"></path><path d="M327.68 753.664c108.032 0 198.144 113.664 227.328 268.8H100.352c29.184-155.136 119.296-268.8 227.328-268.8z" fill="#AEC9FF" p-id="4927"></path></svg>