<?xml version="1.0" standalone="no"?><!DOCTYPE svg PUBLIC "-//W3C//DTD SVG 1.1//EN" "http://www.w3.org/Graphics/SVG/1.1/DTD/svg11.dtd"><svg t="1686110540149" class="icon" viewBox="0 0 1024 1024" version="1.1" xmlns="http://www.w3.org/2000/svg" p-id="15083" xmlns:xlink="http://www.w3.org/1999/xlink" width="200" height="200"><path d="M865.6384 833.3312h-99.328c94.0032-75.52 154.2656-191.3344 154.2656-321.3312 0-227.5328-184.4736-412.0064-412.0064-412.0064S96.5632 284.4672 96.5632 512s184.4736 412.0064 412.0064 412.0064h357.0688c25.0368 0 45.312-20.2752 45.312-45.312s-20.2752-45.3632-45.312-45.3632z" fill="#9043F3" p-id="15084"></path><path d="M508.5696 99.9936c-227.5328 0-412.0064 184.4736-412.0064 412.0064 0 109.6192 42.9056 209.2032 112.7424 283.0336 9.5232 1.6384 19.1488 3.1232 28.8256 4.4032 279.7568 36.6592 542.3104-99.2256 680.6016-325.3248-19.1488-209.7664-195.4304-374.1184-410.1632-374.1184z" fill="#A158F6" p-id="15085"></path><path d="M807.0144 228.1984c-75.0592-78.8992-180.992-128.1536-298.496-128.1536-227.5328 0-412.0064 184.4736-412.0064 412.0064 0 36.5056 4.8128 71.8848 13.7216 105.5744 297.8304 31.4368 573.4912-131.7376 696.7808-389.4272z" fill="#BB78FB" p-id="15086"></path><path d="M108.3392 414.0544c202.5472-23.0912 382.4128-136.5504 491.6736-303.7184-29.44-6.656-60.0064-10.3424-91.4944-10.3424-193.7408 0-356.1984 133.8368-400.1792 314.0608z" fill="#CD8FFF" p-id="15087"></path><path d="M508.5696 347.3408m-86.784 0a86.784 86.784 0 1 0 173.568 0 86.784 86.784 0 1 0-173.568 0Z" fill="#FFFFFF" p-id="15088"></path><path d="M508.5696 685.2096m-86.784 0a86.784 86.784 0 1 0 173.568 0 86.784 86.784 0 1 0-173.568 0Z" fill="#FFFFFF" p-id="15089"></path><path d="M677.4784 516.2496m-86.784 0a86.784 86.784 0 1 0 173.568 0 86.784 86.784 0 1 0-173.568 0Z" fill="#FFFFFF" p-id="15090"></path><path d="M339.6096 516.2496m-86.784 0a86.784 86.784 0 1 0 173.568 0 86.784 86.784 0 1 0-173.568 0Z" fill="#FFFFFF" p-id="15091"></path></svg>