<?xml version="1.0" standalone="no"?><!DOCTYPE svg PUBLIC "-//W3C//DTD SVG 1.1//EN" "http://www.w3.org/Graphics/SVG/1.1/DTD/svg11.dtd"><svg t="1686108844401" class="icon" viewBox="0 0 1024 1024" version="1.1" xmlns="http://www.w3.org/2000/svg" p-id="16722" xmlns:xlink="http://www.w3.org/1999/xlink" width="200" height="200"><path d="M64.00028 79.93595A79.87195 79.87195 0 0 1 143.84023 0h593.087629L959.99972 226.623858v717.279552A79.99995 79.99995 0 0 1 879.71177 1023.99936H144.28823A80.15995 80.15995 0 0 1 64.00028 944.06341V79.93595z" fill="#74B3F8" p-id="16723"></path><path d="M706.015879 310.143806c0-12.191992-6.719996-22.143986-14.943991-22.143986H302.944131C294.720136 287.99982 288.00014 297.983814 288.00014 310.143806v3.679998c0 12.191992 6.719996 22.175986 14.943991 22.175986h388.159757c8.223995 0 14.943991-9.983994 14.943991-22.143986v-3.711998zM706.015879 438.143726c0-12.191992-6.719996-22.143986-14.943991-22.143986H302.944131c-8.223995 0-14.943991 9.983994-14.943991 22.143986v3.679998c0 12.191992 6.719996 22.175986 14.943991 22.175986h388.159757c8.223995 0 14.943991-9.983994 14.943991-22.143986v-3.711998zM419.872058 576.831639c0-12.191992-6.719996-22.143986-14.943991-22.143986H302.944131c-8.223995-0.032-14.943991 9.951994-14.943991 22.143986v3.679998c0 12.191992 6.719996 22.143986 14.943991 22.143986h102.015936c8.223995 0 14.943991-9.983994 14.943991-22.143986l-0.032-3.679998zM717.119872 552.927654l-15.263991-15.26399c-12.383992-12.383992-31.39198-13.439992-42.431973-2.367999l-170.847893 170.847894 60.095962 60.095962 170.847893-170.847893c11.039993-11.071993 9.951994-30.079981-2.399998-42.463974zM459.968033 736.47954v60.159962h59.839962z" fill="#FFFFFF" p-id="16724"></path><path d="M958.463721 224.09586H816.31981A80.31995 80.31995 0 0 1 735.99986 143.80791V0l222.463861 224.09586z" fill="#C4DFFB" p-id="16725"></path></svg>