<?xml version="1.0" standalone="no"?><!DOCTYPE svg PUBLIC "-//W3C//DTD SVG 1.1//EN" "http://www.w3.org/Graphics/SVG/1.1/DTD/svg11.dtd"><svg t="1686109109204" class="icon" viewBox="0 0 1024 1024" version="1.1" xmlns="http://www.w3.org/2000/svg" p-id="33276" xmlns:xlink="http://www.w3.org/1999/xlink" width="200" height="200"><path d="M511.071 515.64m-447.737 0a447.737 447.737 0 1 0 895.474 0 447.737 447.737 0 1 0-895.474 0Z" fill="#C75C5C" p-id="33277"></path><path d="M790.907 767.492c0 30.91-25.057 55.967-55.967 55.967H287.202c-30.91 0-55.967-25.057-55.967-55.967v-391.77c0-30.91 25.057-55.967 55.967-55.967h447.737c30.91 0 55.967 25.057 55.967 55.967v391.77z" fill="#231F20" p-id="33278"></path><path d="M790.907 739.508c0 30.91-25.057 55.967-55.967 55.967H287.202c-30.91 0-55.967-25.057-55.967-55.967v-391.77c0-30.91 25.057-55.967 55.967-55.967h447.737c30.91 0 55.967 25.057 55.967 55.967v391.77z" fill="#E0E0D1" p-id="33279"></path><path d="M790.907 711.525c0 30.91-25.057 55.967-55.967 55.967H287.202c-30.91 0-55.967-25.057-55.967-55.967v-391.77c0-30.91 25.057-55.967 55.967-55.967h447.737c30.91 0 55.967 25.057 55.967 55.967v391.77z" fill="#231F20" p-id="33280"></path><path d="M790.907 683.541c0 30.91-25.057 55.967-55.967 55.967H287.202c-30.91 0-55.967-25.057-55.967-55.967v-391.77c0-30.91 25.057-55.967 55.967-55.967h447.737c30.91 0 55.967 25.057 55.967 55.967v391.77z" fill="#E0E0D1" p-id="33281"></path><path d="M287.202 403.705h167.902v167.902H287.202zM567.038 445.681H734.94v13.992H567.038zM567.038 417.697H734.94v13.992H567.038zM511.071 403.705h41.975v55.967h-41.975zM511.071 487.656H734.94v13.992H511.071zM511.071 515.64H734.94v13.992H511.071zM511.071 543.623H734.94v13.992H511.071zM511.071 571.607H734.94v13.992H511.071zM565.289 613.582h169.65v13.992h-169.65zM287.202 613.582h167.902v13.992H287.202zM287.202 641.566h167.902v13.992H287.202zM287.202 669.549h167.902v13.992H287.202zM287.202 697.533h167.902v13.992H287.202zM511.071 641.566H734.94v13.992H511.071zM511.071 669.549H734.94v13.992H511.071zM511.071 697.533H734.94v13.992H511.071z" fill="#4F5D73" p-id="33282"></path><path d="M399.136 459.672m-27.984 0a27.984 27.984 0 1 0 55.968 0 27.984 27.984 0 1 0-55.968 0Z" fill="#E0E0D1" p-id="33283"></path><path d="M287.202 291.771h447.737v55.967H287.202z" fill="#4F5D73" p-id="33284"></path><path d="M441.112 557.615v-33.776l-10.987-10.921c-6.811-6.77-17.854-6.77-24.665 0l-11.807 11.736-26.977-26.814c-13.66-13.578-35.808-13.578-49.468 0l-16.014 15.917v43.858h139.918z" fill="#E0E0D1" p-id="33285"></path></svg>