<?xml version="1.0" standalone="no"?><!DOCTYPE svg PUBLIC "-//W3C//DTD SVG 1.1//EN" "http://www.w3.org/Graphics/SVG/1.1/DTD/svg11.dtd"><svg t="1686121151460" class="icon" viewBox="0 0 1024 1024" version="1.1" xmlns="http://www.w3.org/2000/svg" p-id="2992" xmlns:xlink="http://www.w3.org/1999/xlink" width="200" height="200"><path d="M256.667826 310.390725H632.950725a29.681159 29.681159 0 1 0 0-58.842899H256.667826a29.681159 29.681159 0 1 0 0 58.842899z" fill="#FC937C" p-id="2993"></path><path d="M226.986667 367.526957m29.681159 0l109.152464 0q29.681159 0 29.681159 29.681159l0 73.683478q0 29.681159-29.681159 29.68116l-109.152464 0q-29.681159 0-29.681159-29.68116l0-73.683478q0-29.681159 29.681159-29.681159Z" fill="#FC937C" p-id="2994"></path><path d="M246.724638 599.55942h367.526956a18.550725 18.550725 0 0 0 0-37.101449H246.724638a18.550725 18.550725 0 0 0 0 37.101449zM614.251594 461.542029H482.318841a18.550725 18.550725 0 0 0 0 37.101449h131.932753a18.550725 18.550725 0 0 0 0-37.101449zM614.251594 644.748986H250.212174a18.550725 18.550725 0 0 0 0 37.101449h364.03942a18.550725 18.550725 0 0 0 0-37.101449zM614.251594 375.689275H482.318841a18.550725 18.550725 0 0 0 0 37.10145h131.932753a18.550725 18.550725 0 0 0 0-37.10145zM507.547826 727.188406H250.212174a18.550725 18.550725 0 1 0 0 37.101449H507.547826a18.550725 18.550725 0 0 0 0-37.101449z" fill="#FC937C" p-id="2995"></path><path d="M883.014493 7.93971H140.985507a133.565217 133.565217 0 0 0-133.565217 133.565218v742.028985a133.565217 133.565217 0 0 0 133.565217 133.565217h742.028986a133.565217 133.565217 0 0 0 133.565217-133.565217v-742.028985a133.565217 133.565217 0 0 0-133.565217-133.565218zM190.404638 869.88058a59.362319 59.362319 0 0 1-59.362319-59.362319V211.404058a59.362319 59.362319 0 0 1 59.362319-59.362319H704.927536a59.362319 59.362319 0 0 1 59.362319 59.362319v418.875362a161.02029 161.02029 0 0 0-17.066667-0.964637 158.72 158.72 0 0 0-136.236521 240.491594z m555.111884 33.836521a114.346667 114.346667 0 1 1 114.717681-113.901449 114.42087 114.42087 0 0 1-114.717681 113.901449z m152.783768-475.937391L865.354203 682.666667a158.274783 158.274783 0 0 0-70.863768-45.783189V369.901449h52.980869a50.457971 50.457971 0 0 1 50.828986 57.878261z" fill="#FC937C" p-id="2996"></path><path d="M806.066087 773.12H723.849275l17.66029-21.444638a16.250435 16.250435 0 0 0-25.080579-20.628405l-38.808116 47.267246a16.918261 16.918261 0 0 0-4.303769 9.572174v2.968116a17.14087 17.14087 0 0 0 4.303769 9.572174l38.808116 47.193043a16.250435 16.250435 0 1 0 25.080579-20.554203l-17.66029-21.51884h82.216812a16.250435 16.250435 0 0 0 0-32.426667z" fill="#FC937C" p-id="2997"></path></svg>