<?xml version="1.0" standalone="no"?><!DOCTYPE svg PUBLIC "-//W3C//DTD SVG 1.1//EN" "http://www.w3.org/Graphics/SVG/1.1/DTD/svg11.dtd"><svg t="1686109010274" class="icon" viewBox="0 0 1105 1024" version="1.1" xmlns="http://www.w3.org/2000/svg" p-id="31832" xmlns:xlink="http://www.w3.org/1999/xlink" width="215.8203125" height="200"><path d="M778.162571 346.301701h242.740265c46.457467 0 84.397732 37.746692 84.397731 84.397732v327.718714c0 146.534594-119.047259 265.581853-265.581852 265.581853h-61.362571V346.301701z" fill="#FE9025" p-id="31833"></path><path d="M758.224575 0H85.172023C38.133837 0 0 38.133837 0 84.97845V938.827977c0 47.038185 38.133837 84.97845 85.172023 84.97845h758.224574V84.97845A84.97845 84.97845 0 0 0 758.418147 0zM554.005293 676.536862c0 25.74518-20.90586 46.65104-46.65104 46.65104H189.314178c-25.74518 0-46.65104-20.90586-46.65104-46.65104s20.90586-46.65104 46.65104-46.65104h318.233648c25.74518 0 46.65104 20.90586 46.65104 46.65104z m76.848393-174.215501c0 25.74518-20.90586 46.65104-46.651039 46.65104H189.314178c-25.74518 0-46.65104-20.90586-46.65104-46.65104s20.90586-46.65104 46.65104-46.65104h395.082041c25.74518 0 46.65104 20.90586 46.65104 46.65104z m69.492628-193.572779c0 25.74518-20.90586 46.65104-46.65104 46.65104H189.314178c-25.74518 0-46.65104-20.90586-46.65104-46.65104s20.90586-46.65104 46.65104-46.651039h464.574669c25.74518 0 46.65104 20.90586 46.65104 46.651039z" fill="#2E84FC" p-id="31834"></path></svg>