<?xml version="1.0" standalone="no"?><!DOCTYPE svg PUBLIC "-//W3C//DTD SVG 1.1//EN" "http://www.w3.org/Graphics/SVG/1.1/DTD/svg11.dtd"><svg t="1686116231736" class="icon" viewBox="0 0 1024 1024" version="1.1" xmlns="http://www.w3.org/2000/svg" p-id="8088" xmlns:xlink="http://www.w3.org/1999/xlink" width="200" height="200"><path d="M0 0m279.272727 0l465.454546 0q279.272727 0 279.272727 279.272727l0 465.454546q0 279.272727-279.272727 279.272727l-465.454546 0q-279.272727 0-279.272727-279.272727l0-465.454546q0-279.272727 279.272727-279.272727Z" fill="#55CAEB" p-id="8089"></path><path d="M490.961455 253.835636c20.154182 0 55.156364 2.024727 92.718545 16.058182l-48.756364 126.301091c-20.084364-7.005091-33.792-7.005091-43.892363-7.005091-73.192727 0-133.701818 60.881455-133.701818 134.469818 0 73.541818 60.555636 134.446545 133.678545 134.446546 73.169455 0 135.982545-60.881455 135.982545-134.446546a113.431273 113.431273 0 0 0-2.094545-23.319272 134.935273 134.935273 0 0 0-5.003636-19.316364l123.136-57.018182c8.168727 22.341818 13.614545 41.658182 16.337454 57.949091 1.629091 9.821091 2.606545 27.182545 2.932364 52.061091-5.050182 144.593455-124.974545 261.073455-271.266909 261.073455C342.202182 795.089455 221.090909 673.326545 221.090909 523.636364c0-149.666909 121.018182-269.800727 269.870546-269.800728z m204.846545-39.819636a2.56 2.56 0 0 1 4.328727 1.536l8.378182 83.479273a10.007273 10.007273 0 0 0 9.076364 9.029818l83.013818 7.912727c2.117818 0.209455 3.025455 2.792727 1.629091 4.212364L701.044364 421.236364a12.357818 12.357818 0 0 1-9.821091 3.514181l-56.017455-5.073454-110.08 109.917091a17.175273 17.175273 0 0 1-10.123636 4.817454l-33.698909 3.584a2.792727 2.792727 0 0 1-3.095273-3.095272l3.886545-33.373091a16.477091 16.477091 0 0 1 4.794182-9.867637l110.219637-110.08-5.934546-56.529454a12.148364 12.148364 0 0 1 3.537455-9.937455l101.096727-101.096727z" fill="#FFFFFF" p-id="8090"></path><path d="M491.706182 416.232727c9.053091 0 18.013091 1.117091 26.786909 3.328l2.699636 0.698182-52.968727 52.968727-0.232727 0.069819c-19.828364 9.309091-32.558545 29.207273-32.651637 51.130181a56.413091 56.413091 0 0 0 109.684364 18.362182l0.069818-0.279273 0.232727-0.279272 49.780364-49.803637 0.768 2.629819a108.381091 108.381091 0 0 1-104.168727 137.681454 108.381091 108.381091 0 0 1-108.241455-108.241454 108.381091 108.381091 0 0 1 108.241455-108.264728z" fill="#FFFFFF" fill-opacity=".6" p-id="8091"></path></svg>