<?xml version="1.0" standalone="no"?><!DOCTYPE svg PUBLIC "-//W3C//DTD SVG 1.1//EN" "http://www.w3.org/Graphics/SVG/1.1/DTD/svg11.dtd"><svg t="1686121678693" class="icon" viewBox="0 0 1024 1024" version="1.1" xmlns="http://www.w3.org/2000/svg" p-id="1695" xmlns:xlink="http://www.w3.org/1999/xlink" width="200" height="200"><path d="M0 512a512 512 0 1 0 1024 0A512 512 0 1 0 0 512z" fill="#FF6655" p-id="1696"></path><path d="M657.838 435.553a37.374 37.374 0 0 0-37.374 37.374v24.96a37.374 37.374 0 0 0 37.374 37.897h87.032V435.553z m24.96 68.606a18.687 18.687 0 1 1 18.686-18.817 18.687 18.687 0 0 1-18.687 18.817z m34.89-202.421H297.165a63.902 63.902 0 0 0-63.902 64.163v310.624a45.738 45.738 0 0 0 45.607 45.737h420.525a45.738 45.738 0 0 0 45.737-45.737v-122.97h-87.293a55.67 55.67 0 0 1-55.67-55.668v-24.96a55.8 55.8 0 0 1 55.67-55.67h87.032v-33.192a36.59 36.59 0 0 0-36.59-36.59H287.494a9.148 9.148 0 0 1 0-18.295H708.54a54.885 54.885 0 0 1 54.885 54.885v281.09a64.294 64.294 0 0 0 27.312-52.27V374.917a73.18 73.18 0 0 0-73.05-73.18z m-59.85 133.815a37.374 37.374 0 0 0-37.374 37.374v24.96a37.374 37.374 0 0 0 37.374 37.897h87.032V435.553z m24.96 68.606a18.687 18.687 0 1 1 18.686-18.817 18.687 18.687 0 0 1-18.687 18.817z m-24.96-68.606a37.374 37.374 0 0 0-37.374 37.374v24.96a37.374 37.374 0 0 0 37.374 37.897h87.032V435.553z m24.96 68.606a18.687 18.687 0 1 1 18.686-18.817 18.687 18.687 0 0 1-18.687 18.817z" fill="#FFFFFF" p-id="1697"></path></svg>