<?xml version="1.0" standalone="no"?><!DOCTYPE svg PUBLIC "-//W3C//DTD SVG 1.1//EN" "http://www.w3.org/Graphics/SVG/1.1/DTD/svg11.dtd"><svg t="1686124379502" class="icon" viewBox="0 0 1024 1024" version="1.1" xmlns="http://www.w3.org/2000/svg" p-id="2576" xmlns:xlink="http://www.w3.org/1999/xlink" width="200" height="200"><path d="M512 512m-464 0a464 464 0 1 0 928 0 464 464 0 1 0-928 0Z" p-id="2577"></path><path d="M597.28 269.76A247.36 247.36 0 0 0 512 256a220.96 220.96 0 0 0-85.28 16l170.56 173.28zM694.08 332.48a233.44 233.44 0 0 0-74.24-48l-1.12 238.56 128-121.28a248 248 0 0 0-52.64-68.8zM752 424.32L576 592h178.08a238.56 238.56 0 0 0 13.92-83.52 212.64 212.64 0 0 0-16-84.16zM624 740a257.12 257.12 0 0 0 71.84-49.12 215.68 215.68 0 0 0 50.56-68.96l-248.64-1.12zM426.72 754.24A247.36 247.36 0 0 0 512 768a220.96 220.96 0 0 0 85.28-16L426.72 578.72zM337.12 691.52a231.84 231.84 0 0 0 74.08 48l1.28-238.56-128 121.28a244 244 0 0 0 52.64 69.28zM269.92 424.32a238.56 238.56 0 0 0-13.92 84.16A211.68 211.68 0 0 0 272 592l176-167.68zM406.88 284a254.72 254.72 0 0 0-71.84 49.12 212.64 212.64 0 0 0-50.56 68.96l248.8 1.12z" fill="#FFFFFF" p-id="2578"></path></svg>