<?xml version="1.0" standalone="no"?><!DOCTYPE svg PUBLIC "-//W3C//DTD SVG 1.1//EN" "http://www.w3.org/Graphics/SVG/1.1/DTD/svg11.dtd"><svg t="1686121801797" class="icon" viewBox="0 0 1024 1024" version="1.1" xmlns="http://www.w3.org/2000/svg" p-id="1930" xmlns:xlink="http://www.w3.org/1999/xlink" width="200" height="200"><path d="M690.77 958.56c-54.19 0-105.07-23.71-143.27-66.76-38.05-42.87-59-99.89-59-160.54a5 5 0 0 1 10 0c0 119.82 86.26 217.3 192.28 217.3a5 5 0 0 1 0 10z" fill="#6BC2FC" p-id="1931"></path><path d="M490.42 64.85c-162.11 0-293.53 131.42-293.53 293.53 0 158.75 126.1 369.9 283.57 378.59h20.16C658 728.2 784 517.1 784 358.38c0-162.11-131.47-293.53-293.58-293.53z" fill="#6BC2FC" p-id="1932"></path><path d="M244.29 496.81a356.92 356.92 0 0 0 4.39 55.85c53 101.65 141.53 184.6 241.81 184.6C652.6 737.26 784 520.49 784 358.38a292.46 292.46 0 0 0-78.25-199.5 354 354 0 0 0-107-16.47c-195.75 0-354.46 158.67-354.46 354.4z" fill="#59ADF8" p-id="1933"></path><path d="M356.4 577.56A318.85 318.85 0 0 0 382.81 705c33.35 20.33 69.67 32.25 107.68 32.25C652.6 737.26 784 520.49 784 358.38a293.29 293.29 0 0 0-13-86.47 319.77 319.77 0 0 0-94.69-14.25c-176.69 0-319.91 143.23-319.91 319.9z" fill="#3A9CED" p-id="1934"></path><path d="M783.17 380.31a260.51 260.51 0 0 0-27.17-1.43c-142.66 0-258.3 115.64-258.3 258.29a257.41 257.41 0 0 0 19.3 98.16c142.63-20.76 255.83-205.16 266.17-355.02z" fill="#2595E8" p-id="1935"></path><path d="M417 126.45c6.34 8.38-23.62 21-54.62 44.42s-51.3 48.82-57.64 40.44 9.73-39.38 40.73-62.81 65.2-30.44 71.53-22.05z" fill="#FFFFFF" p-id="1936"></path></svg>