<?xml version="1.0" standalone="no"?><!DOCTYPE svg PUBLIC "-//W3C//DTD SVG 1.1//EN" "http://www.w3.org/Graphics/SVG/1.1/DTD/svg11.dtd"><svg t="1686124323161" class="icon" viewBox="0 0 1024 1024" version="1.1" xmlns="http://www.w3.org/2000/svg" p-id="874" xmlns:xlink="http://www.w3.org/1999/xlink" width="200" height="200"><path d="M512 512m-464 0a464 464 0 1 0 928 0 464 464 0 1 0-928 0Z" p-id="875"></path><path d="M736 597.92a201.12 201.12 0 0 0-53.92-103.2c6.4-56.64-16-66.72-16-66.72C660.64 252.8 515.2 256 512 256s-148.64-3.2-153.28 172c0 0-22.72 10.08-16 66.72A201.12 201.12 0 0 0 288 597.92s-5.44 105.44 49.92 12.96a300.32 300.32 0 0 0 35.04 66.88s-40.8 14.4-37.44 51.52c0 0-1.44 41.44 87.04 38.56 0 0 62.24-4.96 80.96-32h16c18.72 27.36 80.96 32 80.96 32 88.48 2.88 87.04-38.56 87.04-38.56 3.52-37.12-37.44-51.52-37.44-51.52a304.96 304.96 0 0 0 35.2-66.88c56 93.12 50.72-12.96 50.72-12.96z" fill="#FFFFFF" p-id="876"></path></svg>