<?xml version="1.0" standalone="no"?><!DOCTYPE svg PUBLIC "-//W3C//DTD SVG 1.1//EN" "http://www.w3.org/Graphics/SVG/1.1/DTD/svg11.dtd"><svg t="1686121158779" class="icon" viewBox="0 0 1024 1024" version="1.1" xmlns="http://www.w3.org/2000/svg" p-id="3304" xmlns:xlink="http://www.w3.org/1999/xlink" width="200" height="200"><path d="M512 604.67942m-29.681159 0a29.681159 29.681159 0 1 0 59.362318 0 29.681159 29.681159 0 1 0-59.362318 0Z" fill="#FE7878" p-id="3305"></path><path d="M342.001159 487.884058m-29.681159 0a29.681159 29.681159 0 1 0 59.362319 0 29.681159 29.681159 0 1 0-59.362319 0Z" fill="#FE7878" p-id="3306"></path><path d="M512 487.884058m-29.681159 0a29.681159 29.681159 0 1 0 59.362318 0 29.681159 29.681159 0 1 0-59.362318 0Z" fill="#FE7878" p-id="3307"></path><path d="M342.001159 604.67942m-29.681159 0a29.681159 29.681159 0 1 0 59.362319 0 29.681159 29.681159 0 1 0-59.362319 0Z" fill="#FE7878" p-id="3308"></path><path d="M681.627826 487.884058m-29.681159 0a29.681159 29.681159 0 1 0 59.362319 0 29.681159 29.681159 0 1 0-59.362319 0Z" fill="#FE7878" p-id="3309"></path><path d="M681.627826 604.67942m-29.681159 0a29.681159 29.681159 0 1 0 59.362319 0 29.681159 29.681159 0 1 0-59.362319 0Z" fill="#FE7878" p-id="3310"></path><path d="M883.014493 7.42029H140.985507A133.565217 133.565217 0 0 0 7.42029 140.985507v742.028986a133.565217 133.565217 0 0 0 133.565217 133.565217h742.028986a133.565217 133.565217 0 0 0 133.565217-133.565217V140.985507a133.565217 133.565217 0 0 0-133.565217-133.565217zM334.358261 851.626667l-49.715942-19.589566a10.017391 10.017391 0 0 1 0-18.624927l49.715942-19.589565a2.374493 2.374493 0 0 1 3.33913 2.226087v53.277681a2.522899 2.522899 0 0 1-3.33913 2.30029z m25.525797-59.362319h269.208116V853.333333H359.958261z m397.727536 121.247536H588.874203a18.550725 18.550725 0 0 1 0-37.101449h168.737391a18.550725 18.550725 0 0 1 0 37.101449z m77.171015-72.570435h-54.01971A29.681159 29.681159 0 0 1 756.869565 853.333333H652.391884v-60.475362H756.869565a29.681159 29.681159 0 0 1 23.29971 11.501449h54.390725a18.550725 18.550725 0 0 1 0 37.10145z m26.713043-188.697971v27.974493a59.362319 59.362319 0 0 1-59.362319 59.362319l-65.29855-0.51942H223.202319a59.362319 59.362319 0 0 1-59.362319-59.362319V396.317681h697.507246z m0-293.175652h-697.507246v-81.623188a59.362319 59.362319 0 0 1 59.362319-59.362319h127.554782v-42.518261A19.292754 19.292754 0 0 1 367.601159 155.826087a18.550725 18.550725 0 0 1 20.405798 18.476522v43.482898h104.329275v-42.221449A19.292754 19.292754 0 0 1 508.957681 155.826087a18.550725 18.550725 0 0 1 20.48 18.476522v43.482898H633.692754v-42.221449A19.292754 19.292754 0 0 1 650.314203 155.826087a18.550725 18.550725 0 0 1 20.48 18.476522v43.482898h131.33913a59.362319 59.362319 0 0 1 59.362319 59.362319z" fill="#FE7878" p-id="3311"></path><path d="M367.601159 322.263188A18.550725 18.550725 0 0 0 388.006957 304.231884V218.008116h-37.10145V302.747826a19.292754 19.292754 0 0 0 16.695652 19.515362zM512.742029 322.188986a19.292754 19.292754 0 0 0 16.695652-19.515363V218.008116h-37.101449v85.704348a18.550725 18.550725 0 0 0 20.405797 18.476522zM650.314203 322.263188A18.550725 18.550725 0 0 0 670.794203 304.231884V218.008116h-37.101449V302.747826a19.292754 19.292754 0 0 0 16.621449 19.515362z" fill="#FE7878" p-id="3312"></path></svg>