<?xml version="1.0" standalone="no"?><!DOCTYPE svg PUBLIC "-//W3C//DTD SVG 1.1//EN" "http://www.w3.org/Graphics/SVG/1.1/DTD/svg11.dtd"><svg t="1686121127098" class="icon" viewBox="0 0 1024 1024" version="1.1" xmlns="http://www.w3.org/2000/svg" p-id="2213" xmlns:xlink="http://www.w3.org/1999/xlink" width="200" height="200"><path d="M390.084638 312.171594L437.797101 346.750145a18.624928 18.624928 0 0 1 6.752464 20.702609l-18.17971 55.874782a18.476522 18.476522 0 0 0 28.493913 20.628406l47.489855-34.504348a18.69913 18.69913 0 0 1 21.815652 0L571.362319 443.955942a18.476522 18.476522 0 0 0 28.493913-20.628406l-18.105507-55.874782a18.476522 18.476522 0 0 1 6.678261-20.702609l47.564057-34.578551a18.476522 18.476522 0 0 0-10.907826-33.465507h-58.620289A18.476522 18.476522 0 0 1 549.101449 265.868986l-18.402319-55.874783a18.476522 18.476522 0 0 0-35.172173 0l-18.179711 55.874783A18.476522 18.476522 0 0 1 460.057971 278.706087h-59.362319a18.476522 18.476522 0 0 0-10.611014 33.465507zM300.744348 525.208116a20.554203 20.554203 0 1 0 20.48 20.48 20.48 20.48 0 0 0-20.48-20.48zM300.744348 734.608696a20.554203 20.554203 0 1 0 20.48 20.554203A20.554203 20.554203 0 0 0 300.744348 734.608696zM582.344348 736.315362H380.289855a18.550725 18.550725 0 0 0 0 37.10145h202.054493a18.550725 18.550725 0 0 0 0-37.10145zM300.744348 630.131014a20.554203 20.554203 0 1 0 20.48 20.48 20.48 20.48 0 0 0-20.48-20.48z" fill="#FC937C" p-id="2214"></path><path d="M883.682319 7.42029h-742.028986a133.565217 133.565217 0 0 0-133.565217 133.565217v742.028986a133.565217 133.565217 0 0 0 133.565217 133.565217h742.028986a133.565217 133.565217 0 0 0 133.565217-133.565217V140.985507a133.565217 133.565217 0 0 0-133.565217-133.565217z m-53.055073 810.369855c0 32.797681-26.564638 59.362319-59.362318 66.782609H254.144928c-32.797681-7.42029-59.362319-33.984928-59.362319-66.782609V193.372754a59.362319 59.362319 0 0 1 59.362319-59.362319h517.12a59.362319 59.362319 0 0 1 59.362318 59.362319z" fill="#FC937C" p-id="2215"></path><path d="M717.31942 526.84058H380.289855a18.550725 18.550725 0 0 0 0 37.101449h337.029565a18.550725 18.550725 0 0 0 0-37.101449zM667.826087 631.763478H380.289855a18.550725 18.550725 0 1 0 0 37.10145H667.826087a18.550725 18.550725 0 0 0 0-37.10145z" fill="#FC937C" p-id="2216"></path></svg>