<?xml version="1.0" standalone="no"?><!DOCTYPE svg PUBLIC "-//W3C//DTD SVG 1.1//EN" "http://www.w3.org/Graphics/SVG/1.1/DTD/svg11.dtd"><svg t="1686121289060" class="icon" viewBox="0 0 1024 1024" version="1.1" xmlns="http://www.w3.org/2000/svg" p-id="8416" xmlns:xlink="http://www.w3.org/1999/xlink" width="200" height="200"><path d="M715.337143 497.371429c-2.925714-45.348571-21.942857-86.308571-49.737143-119.954286L547.108571 497.371429h168.228572zM718.262857 285.257143c-51.2-46.811429-118.491429-76.068571-191.634286-78.994286v73.142857c54.125714 2.925714 102.4 24.868571 140.434286 58.514286l51.2-52.662857zM206.262857 497.371429h73.142857c7.314286-117.028571 100.937143-210.651429 217.965715-217.965715v-73.142857c-157.988571 7.314286-283.794286 133.12-291.108572 291.108572z" fill="#FA6D40" p-id="8417"></path><path d="M308.662857 497.371429H497.371429V308.662857c-100.937143 5.851429-182.857143 87.771429-188.708572 188.708572zM497.371429 715.337143V526.628571H308.662857c5.851429 100.937143 87.771429 182.857143 188.708572 188.708572zM526.628571 308.662857v168.228572l119.954286-119.954286c-33.645714-27.794286-74.605714-45.348571-119.954286-48.274286z" fill="#FA6D40" p-id="8418"></path><path d="M950.857143 0H73.142857C32.182857 0 0 32.182857 0 73.142857v877.714286c0 40.96 32.182857 73.142857 73.142857 73.142857h877.714286c40.96 0 73.142857-32.182857 73.142857-73.142857V73.142857c0-40.96-32.182857-73.142857-73.142857-73.142857zM512 848.457143c-185.782857 0-336.457143-150.674286-336.457143-336.457143s150.674286-336.457143 336.457143-336.457143 336.457143 150.674286 336.457143 336.457143-150.674286 336.457143-336.457143 336.457143z" fill="#FA6D40" p-id="8419"></path><path d="M687.542857 356.937143c33.645714 38.034286 54.125714 86.308571 58.514286 140.434286h73.142857c-2.925714-73.142857-32.182857-140.434286-78.994286-191.634286L687.542857 356.937143zM279.405714 526.628571h-73.142857c7.314286 157.988571 134.582857 283.794286 291.108572 291.108572v-73.142857C380.342857 737.28 286.72 643.657143 279.405714 526.628571zM737.28 574.902857c-1.462857 7.314286-10.24 11.702857-17.554286 10.24-7.314286-1.462857-11.702857-10.24-10.24-17.554286 2.925714-13.165714 5.851429-26.331429 7.314286-39.497142H526.628571v190.171428c17.554286-1.462857 35.108571-4.388571 51.2-10.24 7.314286-2.925714 16.091429 1.462857 19.017143 8.777143 2.925714 7.314286-1.462857 16.091429-8.777143 19.017143-19.017143 7.314286-40.96 10.24-61.44 11.702857v73.142857c157.988571-7.314286 283.794286-134.582857 291.108572-291.108571h-73.142857c0 13.165714-2.925714 29.257143-7.314286 45.348571zM672.914286 716.8c-32.182857 0-58.514286-26.331429-58.514286-58.514286s26.331429-58.514286 58.514286-58.514285 58.514286 26.331429 58.514285 58.514285-26.331429 58.514286-58.514285 58.514286z" fill="#FA6D40" p-id="8420"></path><path d="M672.914286 658.285714m-29.257143 0a29.257143 29.257143 0 1 0 58.514286 0 29.257143 29.257143 0 1 0-58.514286 0Z" fill="#FA6D40" p-id="8421"></path></svg>