<?xml version="1.0" standalone="no"?><!DOCTYPE svg PUBLIC "-//W3C//DTD SVG 1.1//EN" "http://www.w3.org/Graphics/SVG/1.1/DTD/svg11.dtd"><svg t="1686121186774" class="icon" viewBox="0 0 1024 1024" version="1.1" xmlns="http://www.w3.org/2000/svg" p-id="3925" xmlns:xlink="http://www.w3.org/1999/xlink" width="200" height="200"><path d="M409.6 277.370435h209.623188a18.550725 18.550725 0 0 0 0-37.101449H409.6a18.550725 18.550725 0 0 0 0 37.101449zM327.828406 277.370435a18.550725 18.550725 0 0 0 0-37.101449h-61.811015a18.550725 18.550725 0 0 0 0 37.101449zM575.591884 755.533913h-163.988406v-70.937971H541.681159a18.550725 18.550725 0 0 0 0-37.101449H411.603478v-57.210435H541.681159a18.550725 18.550725 0 0 0 0-37.101449H411.603478v-66.782609H638.144928V361.887536a18.550725 18.550725 0 0 0-18.550725-18.550724H273.808696a18.550725 18.550725 0 0 0-18.550725 18.550724v412.197102a18.550725 18.550725 0 0 0 18.550725 18.550724h345.414492a18.550725 18.550725 0 0 0 18.550725-18.550724v-18.550725h-62.182029z m-163.988406-375.095652H601.043478v68.86029H411.603478z m-37.101449 375.095652H292.35942v-70.937971h82.142609z m0-108.03942H292.35942v-57.210435h82.142609z m0-94.311884H292.35942v-66.782609h82.142609z m0-103.884058H292.35942v-68.86029h82.142609z" fill="#FE7878" p-id="3926"></path><path d="M883.014493 7.42029H140.985507A133.565217 133.565217 0 0 0 7.42029 140.985507v742.028986a133.565217 133.565217 0 0 0 133.565217 133.565217h742.028986a133.565217 133.565217 0 0 0 133.565217-133.565217V140.985507a133.565217 133.565217 0 0 0-133.565217-133.565217z m-130.522899 808.811594a59.362319 59.362319 0 0 1-59.362319 59.362319H212.442899a59.362319 59.362319 0 0 1-59.362319-59.362319V207.768116a59.362319 59.362319 0 0 1 59.362319-59.362319h480.686376a59.362319 59.362319 0 0 1 59.362319 59.362319v269.208116a158.571594 158.571594 0 0 0-90.156522 23.744927c-68.118261 45.783188-82.291014 132.155362-36.507826 200.347827 29.681159 43.631304 79.990725 59.362319 128.890435 58.026666z m138.017392-38.214493a25.896812 25.896812 0 0 1-36.507827-1.261449l-56.616811-61.514203a21.370435 21.370435 0 0 1-1.929276-2.597101 107.668406 107.668406 0 1 1 37.10145-35.172174 31.536232 31.536232 0 0 1 2.893913 2.597101l56.616811 61.44a25.822609 25.822609 0 0 1-1.632463 36.804638z" fill="#FE7878" p-id="3927"></path><path d="M735.053913 544.426667a69.973333 69.973333 0 0 0-69.89913 69.824927 18.550725 18.550725 0 0 0 37.101449 0 32.797681 32.797681 0 0 1 32.797681-32.723478 18.550725 18.550725 0 0 0 0-37.101449z" fill="#FE7878" p-id="3928"></path></svg>