<?xml version="1.0" standalone="no"?><!DOCTYPE svg PUBLIC "-//W3C//DTD SVG 1.1//EN" "http://www.w3.org/Graphics/SVG/1.1/DTD/svg11.dtd"><svg t="1686110834999" class="icon" viewBox="0 0 1024 1024" version="1.1" xmlns="http://www.w3.org/2000/svg" p-id="27672" xmlns:xlink="http://www.w3.org/1999/xlink" width="200" height="200"><path d="M447.107807 254.739692L295.962782 65.641026H124.495294l151.158154 188.521025h171.454359v0.564513z m445.492513 0L740.90391 65.641026H569.436423l151.158153 188.521025H892.60032v0.564513z m-222.746256 0L518.709038 65.641026H347.228423l151.158153 188.521025h171.467488v0.564513zM956.705346 65.641026H792.169551l151.158154 188.521025h80.121436v-117.76a73.084718 73.084718 0 0 0-4.726154-27.293538 69.855179 69.855179 0 0 0-14.441026-23.158154 65.325949 65.325949 0 0 0-21.845333-15.294359A62.227692 62.227692 0 0 0 956.692217 65.641026z m-883.501949 0h-6.406564a62.227692 62.227692 0 0 0-25.757539 5.014974 65.325949 65.325949 0 0 0-21.845333 15.294359 69.868308 69.868308 0 0 0-14.441026 23.158154 73.084718 73.084718 0 0 0-4.726153 27.306666v117.746872h224.886153L73.190269 65.641026zM0.026782 863.323897c-0.170667 9.334154 1.444103 18.628923 4.726153 27.293539 3.295179 8.664615 8.205128 16.541538 14.441026 23.145026 6.235897 6.616615 13.653333 11.815385 21.845333 15.307487 8.178872 3.492103 16.935385 5.198769 25.757539 5.014974h890.433641a62.253949 62.253949 0 0 0 25.757538-5.014974 65.325949 65.325949 0 0 0 21.845334-15.307487 69.881436 69.881436 0 0 0 14.441025-23.145026c3.282051-8.664615 4.896821-17.959385 4.726154-27.306667V301.738667H0.026782v561.598359z" p-id="27673"></path><path d="M393.859807 479.638974C393.859807 447.698051 419.866782 433.230769 450.114166 433.230769c10.528821-0.131282 20.926359 2.363077 30.247385 7.233641l213.556513 123.562667a52.775385 52.775385 0 0 1 0 93.420308l-213.556513 122.958769c-9.189744 5.198769-19.679179 7.706256-30.247385 7.220513-30.247385 0-56.254359-15.058051-56.254359-46.395077V479.638974z" p-id="27674"></path></svg>