<?xml version="1.0" standalone="no"?><!DOCTYPE svg PUBLIC "-//W3C//DTD SVG 1.1//EN" "http://www.w3.org/Graphics/SVG/1.1/DTD/svg11.dtd"><svg t="1686121797118" class="icon" viewBox="0 0 1024 1024" version="1.1" xmlns="http://www.w3.org/2000/svg" p-id="1772" xmlns:xlink="http://www.w3.org/1999/xlink" width="200" height="200"><path d="M913.75 790.85L724.61 327.06V136.15H751a35.91 35.91 0 0 0 35.91-35.91A35.91 35.91 0 0 0 751 64.33H273a35.91 35.91 0 0 0-35.91 35.91A35.91 35.91 0 0 0 273 136.15h24.1v190.5L110 791.37c-32.42 80.53 26.87 168.3 113.67 168.3h576.61c87.05 0 146.34-88.22 113.47-168.82zM362.2 776a65.1 65.1 0 1 1 64.33-65.87A65.1 65.1 0 0 1 362.2 776z m191.26-194.73a38.67 38.67 0 1 1 38.2-39.12 38.68 38.68 0 0 1-38.2 39.12z" fill="#48E1AA" p-id="1773"></path><path d="M647 248.19c-157.33 0-298.07 71-391.91 182.78L136.63 725.29q-1.12 17.07-1.14 34.42A510.3 510.3 0 0 0 171.26 948a122 122 0 0 0 52.45 11.66h576.57c87.05 0 146.34-88.22 113.47-168.82L724.61 327.06V254a515.73 515.73 0 0 0-77.61-5.81zM362.2 776a65.1 65.1 0 1 1 64.33-65.87A65.1 65.1 0 0 1 362.2 776z m191.26-194.73a38.67 38.67 0 1 1 38.2-39.12 38.68 38.68 0 0 1-38.2 39.12z" fill="#3CD38E" p-id="1774"></path><path d="M767 430.9a434 434 0 0 0-195.35 77.82 38.66 38.66 0 1 1-55 46.87A437.16 437.16 0 0 0 424 693a65.1 65.1 0 0 1-22.76 69.33 440 440 0 0 0-1.14 197.31h400.18c87.05 0 146.34-88.22 113.47-168.82z" fill="#1DCE75" p-id="1775"></path><path d="M589.06 959.67h211.22c87.05 0 146.34-88.22 113.47-168.82l-77.49-190C699.28 666.27 601.75 801 589.06 959.67z" fill="#05C46D" p-id="1776"></path><path d="M469.82 173.07c6.2 10.18-29 21-66.65 44s-63.4 49.3-69.61 39.12 15.42-43.33 53-66.28 77.05-27.02 83.26-16.84z" fill="#FFFFFF" p-id="1777"></path></svg>