<?xml version="1.0" standalone="no"?><!DOCTYPE svg PUBLIC "-//W3C//DTD SVG 1.1//EN" "http://www.w3.org/Graphics/SVG/1.1/DTD/svg11.dtd"><svg t="1686121875038" class="icon" viewBox="0 0 1024 1024" version="1.1" xmlns="http://www.w3.org/2000/svg" p-id="3594" xmlns:xlink="http://www.w3.org/1999/xlink" width="200" height="200"><path d="M533.57 565.23C460.8 496.74 411.62 418.57 383.84 359a291 291 0 0 0 13.84 132.73 83.32 83.32 0 0 0-7.58 5.58L93.61 743.82A81.71 81.71 0 0 0 83 858.9l23.89 28.74A81.73 81.73 0 0 0 222 898.22l296.49-246.54a82.08 82.08 0 0 0 6.32-5.85 287.89 287.89 0 0 0 145.86 39.44 291.47 291.47 0 0 0 34.27-2c-53.49-26.21-115.03-65.01-171.37-118.04z" fill="#FFC65E" p-id="3595"></path><path d="M670.67 106.89c-134.13 0-246.91 91.32-279.61 215.17 28.54 60 79.11 155.25 170.76 231.91 62.35 58.92 130.24 96.56 184.09 121.39 123.23-33.12 214-145.59 214-279.28-0.05-159.71-129.53-289.19-289.24-289.19z" fill="#FFC65E" p-id="3596"></path><path d="M804.72 139.8C642.27 164.84 507.34 273.28 445 420c28.69 44.33 66.57 91.94 116.81 134 62.35 58.92 130.24 96.56 184.09 121.39 123.23-33.12 214-145.59 214-279.28-0.04-111.36-62.96-207.98-155.18-256.31zM434.27 447.71a471.54 471.54 0 0 0-9.21 281.66l93.43-77.69a82.08 82.08 0 0 0 6.32-5.85 287.89 287.89 0 0 0 145.86 39.44 291.47 291.47 0 0 0 34.27-2c-53.49-26.18-115-65-171.37-118a690.57 690.57 0 0 1-99.3-117.56z" fill="#FCB138" p-id="3597"></path><path d="M539 533.69Q550 544 561.82 554c62.35 58.92 130.24 96.56 184.09 121.39 123.23-33.12 214-145.59 214-279.28a287.8 287.8 0 0 0-47.47-158.77C741 260.86 599.16 377 539 533.69zM529.37 561.22a466.87 466.87 0 0 0-19.5 97.62l8.62-7.16a82.08 82.08 0 0 0 6.32-5.85 287.89 287.89 0 0 0 145.86 39.44 291.47 291.47 0 0 0 34.27-2c-53.49-26.18-115-65-171.37-118-1.41-1.37-2.8-2.71-4.2-4.05z" fill="#FCA315" p-id="3598"></path><path d="M659.57 629a773.2 773.2 0 0 0 86.34 46.34c123.23-33.12 214-145.59 214-279.28a291.76 291.76 0 0 0-4.5-51.11A470.15 470.15 0 0 0 659.57 629zM670.67 685.27a291.47 291.47 0 0 0 34.27-2c-17.23-8.43-35.3-18.19-53.76-29.29q-4.53 14.81-8.09 30 13.62 1.27 27.58 1.29z" fill="#FF8E12" p-id="3599"></path><path d="M620.27 157.13c7.56 11.35-32.2 25.36-74.16 53.31s-70.2 59.26-77.76 47.91 15.64-50.23 57.59-78.19 86.77-34.38 94.33-23.03z" fill="#FFFFFF" p-id="3600"></path></svg>