<?xml version="1.0" standalone="no"?><!DOCTYPE svg PUBLIC "-//W3C//DTD SVG 1.1//EN" "http://www.w3.org/Graphics/SVG/1.1/DTD/svg11.dtd"><svg t="1686124335507" class="icon" viewBox="0 0 1024 1024" version="1.1" xmlns="http://www.w3.org/2000/svg" p-id="1178" xmlns:xlink="http://www.w3.org/1999/xlink" width="200" height="200"><path d="M513.12 523.2m-464 0a464 464 0 1 0 928 0 464 464 0 1 0-928 0Z" p-id="1179"></path><path d="M693.28 343.2H332.96a56.16 56.16 0 0 0-59.68 51.68l225.92 123.84a48 48 0 0 0 40.32 0l213.6-120.64v-2.88a56.16 56.16 0 0 0-59.84-52z" fill="#FFFFFF" p-id="1180"></path><path d="M273.12 437.44v214.24A56.32 56.32 0 0 0 332.96 704h360.32a56.16 56.16 0 0 0 59.84-51.52V440.32l-188.16 110.56a101.12 101.12 0 0 1-90.72 0z" fill="#FFFFFF" p-id="1181"></path></svg>