<?xml version="1.0" standalone="no"?><!DOCTYPE svg PUBLIC "-//W3C//DTD SVG 1.1//EN" "http://www.w3.org/Graphics/SVG/1.1/DTD/svg11.dtd"><svg t="1686116168339" class="icon" viewBox="0 0 1024 1024" version="1.1" xmlns="http://www.w3.org/2000/svg" p-id="7466" xmlns:xlink="http://www.w3.org/1999/xlink" width="200" height="200"><path d="M608 768a64 64 0 0 1 64 64v64a64 64 0 0 1-64 64h-192a64 64 0 0 1-64-64v-64a64 64 0 0 1 64-64h192zM288 480a32 32 0 0 1 0 64H128v288l64-2.624V768l128 96-128 96v-64H128a64 64 0 0 1-64-64v-288a64 64 0 0 1 64-64h160z m224-128l160 128v64.192L512 672l-160-127.808V480l160-128z m384-224a64 64 0 0 1 64 64v288a64 64 0 0 1-64 64h-64v64l-128-96 128-96v61.376L896 480V192h-160a32 32 0 0 1 0-64h160z m-288-64a64 64 0 0 1 64 64v64a64 64 0 0 1-64 64h-192a64 64 0 0 1-64-64V128a64 64 0 0 1 64-64h192z" fill="#B19C4A" p-id="7467"></path></svg>