<?xml version="1.0" standalone="no"?><!DOCTYPE svg PUBLIC "-//W3C//DTD SVG 1.1//EN" "http://www.w3.org/Graphics/SVG/1.1/DTD/svg11.dtd"><svg t="1686110610161" class="icon" viewBox="0 0 1024 1024" version="1.1" xmlns="http://www.w3.org/2000/svg" p-id="2022" xmlns:xlink="http://www.w3.org/1999/xlink" width="200" height="200"><path d="M511.4368 509.952m-453.2224 0a453.2224 453.2224 0 1 0 906.4448 0 453.2224 453.2224 0 1 0-906.4448 0Z" fill="#F49D22" p-id="2023"></path><path d="M511.4368 56.7296C261.12 56.7296 58.2144 259.6352 58.2144 509.952c0 99.7888 32.256 192 86.8864 266.8544 74.8544 54.6304 167.0656 86.8864 266.8544 86.8864 250.3168 0 453.2224-202.9056 453.2224-453.2224 0-99.7888-32.256-192-86.8864-266.8544-74.8544-54.6304-167.0656-86.8864-266.8544-86.8864z" fill="#F6AD2A" p-id="2024"></path><path d="M755.0976 303.4112c0-72.6016-17.152-141.2096-47.5136-202.0352-59.3408-28.5696-125.8496-44.5952-196.096-44.5952C261.12 56.7296 58.2144 259.6352 58.2144 509.952c0 72.6016 17.152 141.2096 47.5136 202.0352 59.3408 28.5696 125.8496 44.5952 196.096 44.5952 250.368 0.0512 453.2736-202.8544 453.2736-453.1712z" fill="#F9BF34" p-id="2025"></path><path d="M58.2144 509.952c0 38.912 4.9664 76.6464 14.2336 112.64a443.5968 443.5968 0 0 0 114.688 15.0528c245.7088 0 444.928-199.2192 444.928-444.928 0-43.1616-6.2464-84.7872-17.7152-124.2112-33.024-7.68-67.4816-11.776-102.8608-11.776-250.368 0-453.2736 202.9056-453.2736 453.2224z" fill="#FAC93A" p-id="2026"></path><path d="M444.0576 253.7472H220.1088a32.8192 32.8192 0 0 0-32.8192 32.8192v94.4128a32.8192 32.8192 0 0 0 32.8192 32.8192h223.9488a32.8192 32.8192 0 0 0 32.8192-32.8192V286.5664a32.8192 32.8192 0 0 0-32.8192-32.8192z m-35.6864 80.7936H255.232c-9.984 0-18.0224-8.0896-18.0224-18.0224 0-9.984 8.0896-18.0224 18.0224-18.0224h153.1392a18.01728 18.01728 0 1 1 0 36.0448z" fill="#F9F9F9" p-id="2027"></path><path d="M444.0576 253.7472H220.1088a32.8192 32.8192 0 0 0-32.8192 32.8192v94.4128a32.8192 32.8192 0 0 0 32.8192 32.8192h96.768l79.2576-79.2576H255.232a18.01728 18.01728 0 1 1 0-36.0448h153.1392c6.4512 0 12.0832 3.4304 15.2576 8.5504l43.6224-43.6224a32.44032 32.44032 0 0 0-23.1936-9.6768z" fill="#FFFFFF" p-id="2028"></path><path d="M289.5872 619.4688c-23.296 0-42.24 18.944-42.24 42.24s18.944 42.1888 42.24 42.1888 42.1888-18.944 42.1888-42.1888c0.0512-23.296-18.8928-42.24-42.1888-42.24z" fill="#FEFAF3" p-id="2029"></path><path d="M735.8464 619.4688c-23.296 0-42.1888 18.944-42.1888 42.24s18.944 42.1888 42.1888 42.1888 42.1888-18.944 42.1888-42.1888c0-23.296-18.8928-42.24-42.1888-42.24z" fill="#F7E8D2" p-id="2030"></path><path d="M736.3584 535.2448c-1.024-0.7168-2.0992-1.3824-3.3792-1.8432l-10.7008-4.1984a14.72 14.72 0 0 1-9.3696-13.7728V450.304c0-2.2528 0.512-4.4544 1.4848-6.4512l10.1376-20.8896c1.4336-2.9696 3.84-5.4272 6.8608-6.8608 19.3536-8.96 32.768-28.5184 32.768-51.2512 0-31.232-25.344-56.576-56.576-56.576a51.2 51.2 0 0 0-5.632 0.3072V272.896c0-5.888 3.6352-10.9056 8.8576-13.5168 3.0208-1.4848 5.0688-3.584 5.8368-6.1952 2.816-9.3696-11.8784-22.016-32.768-28.3136-20.8896-6.2464-40.1408-3.7376-42.9056 5.5808s11.8784 22.016 32.768 28.3136c1.6896 0.512 3.3792 0.9216 5.0688 1.3312v34.6112c0 8.192-6.6048 14.7968-14.7968 14.7968h-82.7904c-8.192 0-14.7968 6.6048-14.7968 14.7968v19.6096c0 8.192 6.6048 14.7968 14.7968 14.7968h11.264c8.192 0 14.848 6.656 14.7968 14.848l-0.256 69.4784c0 2.4576-0.6144 4.9152-1.8432 7.0656l-63.0784 115.0976c-2.6112 4.7616-7.5776 7.68-12.9536 7.68H451.3792c-11.8784 0-18.8928-13.2608-12.2368-23.0912l38.4-56.7296c1.6384-2.4576 2.56-5.3248 2.56-8.2944v-23.1936c0-8.192-6.6048-14.7968-14.7968-14.7968H202.9568c-8.192 0-14.7968 6.6048-14.7968 14.7968v12.9024c0 8.192 6.6048 14.7968 14.7968 14.7968 11.5712 0 18.688 12.6976 12.5952 22.5792l-37.3248 60.416c-0.2048 0.3584-0.4608 0.7168-0.7168 1.0752l-19.2 25.7536c-1.8944 2.56-2.9184 5.6832-2.9184 8.8576v64.0512c0 6.5024 4.2496 11.9808 10.0864 13.9776 11.3664 58.1632 62.6176 102.0928 124.1088 102.0928 61.2352 0 112.2816-43.4688 123.9552-101.2736h198.2976c11.6736 57.7536 62.7712 101.2736 123.9552 101.2736 69.888 0 126.5152-56.6272 126.5152-126.5152 0.0512-69.5296-56.32-126.0544-125.952-126.3104z m-446.7712 204.7488c-43.1616 0-78.2848-35.1232-78.2848-78.2848s35.1232-78.2848 78.2848-78.2848 78.2848 35.1232 78.2848 78.2848-35.1232 78.2848-78.2848 78.2848z m446.2592 0c-43.1616 0-78.2848-35.1232-78.2848-78.2848s35.1232-78.2848 78.2848-78.2848 78.2848 35.1232 78.2848 78.2848-35.1232 78.2848-78.2848 78.2848z" fill="#F7E8D2" p-id="2031"></path><path d="M732.9792 533.3504l-10.7008-4.1984a14.72 14.72 0 0 1-9.3696-13.7728V450.304c0-2.2528 0.512-4.4544 1.4848-6.4512l10.1376-20.8896c1.4336-2.9696 3.84-5.4272 6.8608-6.8608 19.3536-8.96 32.768-28.5184 32.768-51.2512 0-30.6688-24.3712-55.552-54.8352-56.4736L607.0784 410.624l-0.1024 32.512c0 2.4576-0.6144 4.9152-1.8432 7.0656l-63.0784 115.0976c-2.6112 4.7616-7.5776 7.68-12.9536 7.68H451.3792c-1.9968 0-3.84-0.4096-5.5296-1.0752l-78.7968 78.7968c0.512 3.6352 0.8704 7.2704 0.8704 11.008 0 43.1616-35.1232 78.2848-78.2848 78.2848-3.7376 0-7.424-0.3584-11.008-0.8704l-38.7584 38.7584c15.3088 6.5536 32.1024 10.2912 49.8176 10.2912 61.2352 0 112.2816-43.4688 123.9552-101.2736h198.2976c0.3072 1.5872 0.768 3.1744 1.1776 4.7104l46.2336-46.2336c6.4-30.1056 30.1568-53.9136 60.3136-60.3136l46.2848-46.2848c-9.472-2.304-19.3536-3.584-29.5424-3.6352-1.0752-0.6656-2.1504-1.28-3.4304-1.792z" fill="#FDF3E2" p-id="2032"></path><path d="M701.952 308.6336V272.896c0-5.888 3.6352-10.9056 8.8576-13.5168 3.0208-1.4848 5.0176-3.584 5.8368-6.1952 2.816-9.3696-11.8784-22.016-32.768-28.3136-20.8896-6.2464-40.1408-3.7376-42.9056 5.5808-2.816 9.3696 11.8784 22.016 32.768 28.3136 1.6896 0.512 3.3792 0.9216 5.0688 1.3312v34.6112c0 8.192-6.6048 14.7968-14.7968 14.7968h-82.7904c-8.192 0-14.7968 6.6048-14.7968 14.7968v19.6096c0 8.192 6.6048 14.7968 14.7968 14.7968h11.264c8.192 0 14.848 6.656 14.7968 14.848l-0.1024 36.9152 102.1952-102.1952c-0.5632 0-1.1776-0.1024-1.7408-0.1024-1.9968 0.1536-3.84 0.256-5.6832 0.4608zM439.0912 549.888l38.4-56.7296c1.6384-2.4576 2.56-5.3248 2.56-8.2944v-23.1936c0-8.192-6.6048-14.7968-14.7968-14.7968H283.8016l-73.2672 73.2672-32.256 52.2752c-0.2048 0.3584-0.4608 0.7168-0.7168 1.0752l-19.2 25.7536c-1.8944 2.56-2.9184 5.6832-2.9184 8.8576v64.0512c0 6.5024 4.2496 11.9808 10.0864 13.9776 8.0896 41.4208 36.4544 75.52 74.3424 91.8016l38.7584-38.7584c-37.9392-5.376-67.2768-37.9904-67.2768-77.4144 0-43.1616 35.1232-78.2848 78.2848-78.2848 39.424 0 72.0384 29.3376 77.4144 67.2768l78.7968-78.7968c-8.3456-3.4304-12.288-13.9264-6.7584-22.0672z" fill="#FEFAF3" p-id="2033"></path><path d="M188.16 461.6704v12.9024c0 8.192 6.6048 14.7968 14.7968 14.7968 11.5712 0 18.688 12.6976 12.5952 22.5792l-5.0688 8.192 73.2672-73.2672H202.9568c-8.1408 0-14.7968 6.656-14.7968 14.7968z" fill="#FFFFFF" p-id="2034"></path></svg>