<?xml version="1.0" standalone="no"?><!DOCTYPE svg PUBLIC "-//W3C//DTD SVG 1.1//EN" "http://www.w3.org/Graphics/SVG/1.1/DTD/svg11.dtd"><svg t="1686115737998" class="icon" viewBox="0 0 1024 1024" version="1.1" xmlns="http://www.w3.org/2000/svg" p-id="2276" xmlns:xlink="http://www.w3.org/1999/xlink" width="200" height="200"><path d="M812.35 720.75H365.5c-50 0-90.58-42.25-90.58-94.37V362.16c0-52.12 40.55-94.36 90.58-94.36h446.85c50 0 90.58 42.24 90.58 94.36v264.22c0 52.12-40.55 94.37-90.58 94.37z" fill="#E9F1FF" p-id="2277"></path><path d="M788 780H236c-83.81 0-152-65.2-152-145.33V277.33C84 197.2 152.19 132 236 132h552c83.81 0 152 65.2 152 145.33v357.34C940 714.8 871.81 780 788 780zM236 196c-48.52 0-88 36.49-88 81.33v357.34c0 44.84 39.48 81.33 88 81.33h552c48.52 0 88-36.49 88-81.33V277.33c0-44.84-39.48-81.33-88-81.33zM833.13 892H191a32 32 0 1 1 0-64h642.13a32 32 0 1 1 0 64z" fill="#2C5CCB" p-id="2278"></path><path d="M433.57 634.13a87.76 87.76 0 0 1-87.43-87.57V365.44a87.43 87.43 0 0 1 131.14-75.72l156.86 90.57a87.41 87.41 0 0 1 0 151.42l-156.86 90.57a87.23 87.23 0 0 1-43.71 11.85z m0.14-296.22a28.16 28.16 0 0 0-13.85 3.78 26.93 26.93 0 0 0-13.72 23.75v181.12a27.43 27.43 0 0 0 41.14 23.75l156.86-90.56a27.42 27.42 0 0 0 0-47.5l-156.86-90.56a26.76 26.76 0 0 0-13.57-3.78z" fill="#2C5CCB" p-id="2279"></path></svg>