<?xml version="1.0" standalone="no"?><!DOCTYPE svg PUBLIC "-//W3C//DTD SVG 1.1//EN" "http://www.w3.org/Graphics/SVG/1.1/DTD/svg11.dtd"><svg t="1686124383392" class="icon" viewBox="0 0 1024 1024" version="1.1" xmlns="http://www.w3.org/2000/svg" p-id="2729" xmlns:xlink="http://www.w3.org/1999/xlink" width="200" height="200"><path d="M512 512m-464 0a464 464 0 1 0 928 0 464 464 0 1 0-928 0Z" p-id="2730"></path><path d="M478.88 579.2c0 65.76 64.96 119.2 144 119.2a173.76 173.76 0 0 0 54.88-8.8c4.64 2.4 37.76 30.88 45.12 25.92s-12-35.04-13.44-40.64a114.4 114.4 0 0 0 58.08-96c0-65.92-64.96-119.36-144-119.36s-144.64 53.76-144.64 119.68z m174.88-41.92a20.8 20.8 0 1 1 41.44 0 20.8 20.8 0 0 1-41.44 0z m-101.76 0a20.8 20.8 0 1 1 41.44 0 20.8 20.8 0 0 1-41.44 0z" fill="#FFFFFF" p-id="2731"></path><path d="M465.92 578.24c0-71.84 70.88-130.24 158.08-130.24a121.28 121.28 0 0 1 13.44 0c-9.76-79.2-91.2-140.8-190.24-140.8-105.44 0-191.04 70.4-191.04 157.44a150.24 150.24 0 0 0 76.8 127.36c-1.92 7.04-24 48-17.6 53.44 9.76 6.56 53.44-32 59.36-34.08a229.92 229.92 0 0 0 72.32 11.52 200.96 200.96 0 0 0 27.68-1.76 106.4 106.4 0 0 1-8.8-42.88z m48-196.64a27.68 27.68 0 0 1 27.52 27.68 27.04 27.04 0 0 1-27.52 27.52 27.68 27.68 0 1 1 0-55.2z m-134.08 55.2a27.68 27.68 0 1 1 27.68-27.52 27.68 27.68 0 0 1-27.68 27.52z" fill="#FFFFFF" p-id="2732"></path></svg>