<?xml version="1.0" standalone="no"?><!DOCTYPE svg PUBLIC "-//W3C//DTD SVG 1.1//EN" "http://www.w3.org/Graphics/SVG/1.1/DTD/svg11.dtd"><svg t="1686124345033" class="icon" viewBox="0 0 1024 1024" version="1.1" xmlns="http://www.w3.org/2000/svg" p-id="1489" xmlns:xlink="http://www.w3.org/1999/xlink" width="200" height="200"><path d="M512 512m-464 0a464 464 0 1 0 928 0 464 464 0 1 0-928 0Z" p-id="1490"></path><path d="M601.12 307.36c-6.88 1.28-22.24 7.2-22.4 20a24.48 24.48 0 0 0 20.48 21.6c25.44 0 147.04-6.56 124.8 110.88-3.04 12.8-5.44 32 9.76 36.64s22.56-10.88 26.4-21.92 58.08-181.12-159.04-167.2zM632.8 503.84s-25.44 5.6-13.44-13.44c18.88-37.12-11.84-97.92-91.84-57.44-27.52 14.56-27.52 4.16-26.56-14.08 2.4-100.32-183.36-28.8-236 101.44-29.6 79.2 17.92 147.52 91.36 177.28 179.52 64 310.08-41.92 332.48-110.4 29.6-103.04-56-83.36-56-83.36zM460.64 673.92c-84.8 11.68-160-25.76-168.16-83.36s54.56-113.92 139.52-125.6 160 25.6 168.16 83.36-54.56 113.92-139.52 125.6z" fill="#FFFFFF" p-id="1491"></path><path d="M673.28 473.6c8.64 2.24 11.84-4.8 12.8-11.2s16-93.12-79.04-83.2c-7.2 0.8-12 5.12-11.2 11.36a10.08 10.08 0 0 0 10.08 9.44c4.16 0 67.36-11.52 62.24 55.04 0.96 6.08-3.36 16.48 5.12 18.56zM432.96 505.28c-44.16 8.48-74.72 43.84-67.84 79.04s48 56.8 92.32 48 74.72-43.84 68-79.04-48.16-56.48-92.48-48z m-5.12 94.88A23.84 23.84 0 1 1 455.52 576a25.92 25.92 0 0 1-27.68 24.16z m45.28-32a14.24 14.24 0 0 1-11.52-16c0-8.48 5.76-16 11.52-16s11.52 6.88 11.52 16a14.08 14.08 0 0 1-11.52 16.16z" fill="#FFFFFF" p-id="1492"></path></svg>