<?xml version="1.0" standalone="no"?><!DOCTYPE svg PUBLIC "-//W3C//DTD SVG 1.1//EN" "http://www.w3.org/Graphics/SVG/1.1/DTD/svg11.dtd"><svg t="1686124010857" class="icon" viewBox="0 0 1024 1024" version="1.1" xmlns="http://www.w3.org/2000/svg" p-id="10557" xmlns:xlink="http://www.w3.org/1999/xlink" width="200" height="200"><path d="M798.423188 795.455072m-201.831884 0a201.831884 201.831884 0 1 0 403.663768 0 201.831884 201.831884 0 1 0-403.663768 0Z" fill="#4C91FF" p-id="10558"></path><path d="M718.284058 284.93913h-290.875362c-17.808696 0-29.681159-11.872464-29.68116-29.681159s11.872464-29.681159 29.68116-29.681159h290.875362c17.808696 0 29.681159 11.872464 29.681159 29.681159 0 14.84058-14.84058 29.681159-29.681159 29.681159zM718.284058 418.504348H267.130435c-17.808696 0-29.681159-11.872464-29.68116-29.68116s11.872464-29.681159 29.68116-29.681159h451.153623c17.808696 0 29.681159 11.872464 29.681159 29.681159s-14.84058 29.681159-29.681159 29.68116zM694.53913 555.037681H243.385507c-17.808696 0-29.681159-11.872464-29.681159-29.681159s11.872464-29.681159 29.681159-29.68116h451.153623c17.808696 0 29.681159 11.872464 29.68116 29.68116 0 14.84058-11.872464 29.681159-29.68116 29.681159zM670.794203 688.602899H222.608696c-17.808696 0-29.681159-11.872464-29.68116-29.68116s11.872464-29.681159 29.68116-29.681159h451.153623c17.808696 0 29.681159 11.872464 29.681159 29.681159-2.968116 17.808696-14.84058 29.681159-32.649275 29.68116zM650.017391 825.136232H198.863768c-17.808696 0-29.681159-11.872464-29.681159-29.68116s11.872464-29.681159 29.681159-29.681159h451.153623c17.808696 0 29.681159 11.872464 29.68116 29.681159s-14.84058 29.681159-29.68116 29.68116zM308.684058 284.93913H267.130435c-17.808696 0-29.681159-11.872464-29.68116-29.681159s11.872464-29.681159 29.68116-29.681159h41.553623c17.808696 0 29.681159 11.872464 29.681159 29.681159 0 14.84058-11.872464 29.681159-29.681159 29.681159z" fill="#231815" p-id="10559"></path><path d="M816.231884 1024c14.84058 0 26.713043-11.872464 29.681159-26.713043 17.808696-121.692754 86.075362-638.144928 74.202899-706.411595-8.904348-62.330435-59.362319-216.672464-77.171014-270.09855-2.968116-11.872464-14.84058-20.776812-26.713044-20.776812H53.426087C32.649275 0 17.808696 20.776812 26.713043 41.553623 53.426087 106.852174 106.852174 237.449275 112.788406 296.811594L23.744928 985.414493v5.936232c0 17.808696 14.84058 29.681159 29.681159 29.681159m739.06087-83.107246c-2.968116 14.84058-14.84058 26.713043-29.68116 26.713043H124.66087c-17.808696 0-32.649275-14.84058-29.68116-35.617391 26.713043-169.182609 89.043478-566.910145 77.171015-641.113044C166.214493 237.449275 139.501449 160.278261 115.756522 100.915942 106.852174 80.13913 121.692754 59.362319 142.469565 59.362319h629.24058c11.872464 0 23.744928 8.904348 29.681159 20.776811 17.808696 59.362319 53.426087 169.182609 59.362319 219.64058 8.904348 50.457971-32.649275 391.791304-68.266666 638.144928z" fill="#231815" p-id="10560"></path></svg>