<?xml version="1.0" standalone="no"?><!DOCTYPE svg PUBLIC "-//W3C//DTD SVG 1.1//EN" "http://www.w3.org/Graphics/SVG/1.1/DTD/svg11.dtd"><svg t="1686124375765" class="icon" viewBox="0 0 1024 1024" version="1.1" xmlns="http://www.w3.org/2000/svg" p-id="2421" xmlns:xlink="http://www.w3.org/1999/xlink" width="200" height="200"><path d="M528.16 527.36m-464 0a464 464 0 1 0 928 0 464 464 0 1 0-928 0Z" p-id="2422"></path><path d="M528 272a256 256 0 0 0-208 405.44l-23.04 70.08a12.8 12.8 0 0 0 3.2 13.12 13.28 13.28 0 0 0 12.96 3.36l72.96-23.68A256 256 0 1 0 528 272z m148.8 360.8a72.16 72.16 0 0 1-51.2 36.16c-13.44 2.88-31.04 5.12-89.6-19.2a317.92 317.92 0 0 1-128-112 145.28 145.28 0 0 1-30.56-76.8 81.92 81.92 0 0 1 25.6-62.4 38.08 38.08 0 0 1 25.6-9.28h8.48c7.36 0 11.2 0 16 12.48s21.12 51.2 22.88 55.36a14.56 14.56 0 0 1 1.28 13.76 48 48 0 0 1-8.48 11.84c-3.52 4.32-7.36 7.68-11.04 12.32a12 12 0 0 0-3.04 16A236.48 236.48 0 0 0 496 561.76a190.24 190.24 0 0 0 60.16 37.12 16 16 0 0 0 17.92-2.88 256 256 0 0 0 20-25.6 14.4 14.4 0 0 1 18.4-5.44c6.88 2.4 43.52 20.48 51.2 24.16s12.64 5.6 14.4 8.64a64 64 0 0 1-1.28 35.04z" fill="#FFFFFF" p-id="2423"></path></svg>