<?xml version="1.0" standalone="no"?><!DOCTYPE svg PUBLIC "-//W3C//DTD SVG 1.1//EN" "http://www.w3.org/Graphics/SVG/1.1/DTD/svg11.dtd"><svg t="1686121899987" class="icon" viewBox="0 0 1134 1024" version="1.1" xmlns="http://www.w3.org/2000/svg" p-id="1001" xmlns:xlink="http://www.w3.org/1999/xlink" width="221.484375" height="200"><path d="M1018.823553 1023.970156H113.202617A113.202617 113.202617 0 0 1 0 910.767539V511.985592a113.202617 113.202617 0 0 1 113.202617-113.202617l394.665487 245.443856a113.202617 113.202617 0 0 0 120.40642 0l392.607258-245.443856a112.68806 112.68806 0 0 1 113.202617 113.202617v398.781947a112.68806 112.68806 0 0 1-115.260846 113.202617z" fill="#FFAE55" p-id="1002"></path><path d="M990.522899 342.181667l-360.190145 240.81284a111.658945 111.658945 0 0 1-125.551994 0l-360.190145-240.81284V113.203646A113.202617 113.202617 0 0 1 257.793232 0.001029h622.614394a112.68806 112.68806 0 0 1 113.202617 113.202617z" fill="#FFC571" p-id="1003"></path><path d="M650.915048 195.532822h-339.607851a25.727868 25.727868 0 0 1-25.727868-25.727867 25.727868 25.727868 0 0 1 25.727868-25.727868h339.607851a25.727868 25.727868 0 0 1 25.727867 25.727868 25.727868 25.727868 0 0 1-25.727867 25.727867zM792.418319 337.036093H311.307197a25.727868 25.727868 0 0 1-25.727868-25.727867 25.727868 25.727868 0 0 1 25.727868-25.727868h481.111122a25.727868 25.727868 0 0 1 25.727868 25.727868 25.727868 25.727868 0 0 1-25.727868 25.727867z" fill="#FFE8D2" p-id="1004"></path></svg>