<?xml version="1.0" standalone="no"?><!DOCTYPE svg PUBLIC "-//W3C//DTD SVG 1.1//EN" "http://www.w3.org/Graphics/SVG/1.1/DTD/svg11.dtd"><svg t="1686116559681" class="icon" viewBox="0 0 1024 1024" version="1.1" xmlns="http://www.w3.org/2000/svg" p-id="15061" xmlns:xlink="http://www.w3.org/1999/xlink" width="200" height="200"><path d="M854.536192 225.347584 683.461632 225.347584l0-30.427136c0-27.00288-10.852352-51.572736-28.778496-69.499904l0 0c-17.703936-17.702912-42.256384-28.986368-69.052416-28.986368L458.832896 96.434176c-27.021312 0-51.796992 11.28448-69.499904 28.986368l0 0c-17.477632 17.927168-29.003776 42.497024-29.003776 69.499904l0 30.427136L189.481984 225.347584c-63.962112 0-117.067776 52.7872-117.067776 117.065728l0 467.74784c0 64.632832 53.105664 117.404672 117.067776 117.404672l665.054208 0c64.186368 0 117.289984-52.99712 117.289984-117.404672L971.826176 342.413312C971.826176 278.452224 918.721536 225.347584 854.536192 225.347584L854.536192 225.347584zM402.394112 194.920448 402.394112 194.920448c0-15.719424 6.401024-29.771776 16.169984-40.28928l0.4096 0c10.180608-10.271744 24.141824-16.709632 39.858176-16.709632l126.799872 0c15.492096 0 29.454336 6.438912 40.04352 16.709632 10.181632 10.517504 16.618496 24.569856 16.618496 40.28928l0 30.427136L402.394112 225.347584 402.394112 194.920448 402.394112 194.920448zM902.551552 810.161152 902.551552 810.161152c0 26.796032-21.25824 47.904768-48.016384 47.904768L189.481984 858.06592c-25.897984 0-47.792128-21.108736-47.792128-47.904768L141.689856 342.413312c0-26.43968 21.669888-47.566848 47.792128-47.566848l665.054208 0c26.758144 0 48.016384 21.127168 48.016384 47.566848L902.552576 810.161152 902.551552 810.161152zM716.210176 493.687808 716.210176 493.687808 604.684288 493.687808 604.684288 382.702592c0-11.731968-9.32352-21.03296-20.811776-21.03296L460.143616 361.669632c-11.264 0-20.359168 9.300992-20.359168 21.03296l0 110.985216L328.256512 493.687808c-11.527168 0-20.810752 9.412608-20.810752 20.922368l0 123.692032c0 11.301888 9.28256 20.92032 20.810752 20.92032l111.527936 0 0 111.417344c0 11.303936 9.095168 20.584448 20.359168 20.584448l123.728896 0c11.488256 0 20.811776-9.280512 20.811776-20.584448L604.684288 659.221504l111.525888 0c11.715584 0 20.809728-9.618432 20.809728-20.92032L737.019904 514.610176C737.019904 503.100416 727.92576 493.687808 716.210176 493.687808L716.210176 493.687808zM695.400448 617.94304 695.400448 617.94304 583.872512 617.94304c-11.301888 0-20.358144 8.869888-20.358144 20.359168l0 111.5648-82.563072 0 0-111.5648c0-11.48928-9.281536-20.359168-20.80768-20.359168L348.61568 617.94304l0-82.542592 111.527936 0c11.52512 0 20.80768-9.505792 20.80768-20.790272L480.951296 403.398656l82.563072 0 0 111.210496c0 11.28448 9.056256 20.790272 20.358144 20.790272l111.527936 0L695.400448 617.94304 695.400448 617.94304z" fill="#231815" p-id="15062"></path></svg>