<?xml version="1.0" standalone="no"?><!DOCTYPE svg PUBLIC "-//W3C//DTD SVG 1.1//EN" "http://www.w3.org/Graphics/SVG/1.1/DTD/svg11.dtd"><svg t="1686116383825" class="icon" viewBox="0 0 1118 1024" version="1.1" xmlns="http://www.w3.org/2000/svg" p-id="11872" xmlns:xlink="http://www.w3.org/1999/xlink" width="218.359375" height="200"><path d="M536.436646 1.592612c42.502843-1.766804 85.503378 0.360826 126.948627 10.451519 39.429599 9.568117 77.540316 27.696525 106.580608 56.475529 29.625079 28.878542 48.487582 67.225662 58.702697 106.966318 8.522965 32.847631 11.857497 66.827509 12.404958 100.682965 2.077861 89.323159-27.447679 178.571665-80.750425 250.089915-24.697934 33.096476-54.434994 62.733998-88.974776 85.51582-20.181385 13.40034-42.166902 24.312224-65.483742 31.031057-24.175358 7.104544-50.05531 8.622503-74.72836 3.222552-41.495018-8.834022-78.946294-31.080826-111.234022-58.030814-64.811859-54.882916-111.05983-131.042139-131.141676-213.472273-12.840437-51.971422-13.313244-106.356646-6.084277-159.199027 6.519757-45.215261 21.214095-90.442965 49.769137-126.712224 24.088262-31.080826 57.943718-53.738226 94.77288-66.964374 34.925492-12.877764 72.177691-18.315043 109.218371-20.056963zM327.256962 660.85949c13.375456-5.325298 29.488214-2.525784 40.41254 6.818371 6.930352 5.474605 10.575942 13.686513 14.694338 21.251422 25.755529 47.653949 51.523499 95.295456 77.266585 142.961847 2.600437 4.976914 5.33774 10.177789 10.053366 13.499879 10.065808 7.751543 25.680875 6.258469 34.378032-2.88661 8.012831-8.087485 9.406367-21.51271 3.720243-31.292346-6.009623-11.459344-12.044131-22.906245-18.02887-34.378031-3.446513-6.432661-4.205492-14.283742-1.717036-21.164326 1.430863-4.392126 4.404569-8.000389 7.378275-11.422017 11.422017-13.474994 22.694727-27.061968 34.166513-40.499635 11.70819-13.313244 32.536574-17.120583 48.226294-8.858907 8.22435 3.857108 13.736282 11.285152 19.434848 18.053755 9.841847 11.70819 19.758348 23.341725 29.550425 35.087242 6.432661 7.78887 7.552467 19.422406 2.77463 28.318639-6.221142 12.031689-12.616476 23.988724-18.837619 36.020413-5.026683 9.493463-3.384301 22.047728 4.018858 29.861482 7.316063 7.863524 19.671252 10.439077 29.525541 6.121604 5.61147-2.28938 10.040923-6.868141 12.852879-12.168554 27.634313-51.150231 55.318396-102.288019 82.940268-153.450692 2.575553-5.001798 5.599028-9.866731 9.80452-13.661629 12.180996-11.621094 31.852248-14.2713 46.621239-6.121604 70.846367 37.078007 141.568311 74.541725 210.125298 115.750572 18.57633 11.496671 37.326853 22.868919 54.372782 36.592758 10.911883 8.460753 18.165735 20.504885 24.635723 32.486804 8.087485 15.353779 14.856087 31.366999 21.027461 47.579295 5.101337 13.698955 11.023864 27.385468 11.907266 42.179344v9.493463c-1.953439 31.093269-22.968457 60.158445-52.369575 70.871252-14.184204 5.748335-29.68729 5.33774-44.692685 5.188432-312.711932 0-625.423864 0-938.148238-0.012442-9.866731 0.087096-19.77079-1.331324-29.077619-4.678299-23.714994-8.274119-42.726804-28.393293-50.080194-52.369575-5.126221-16.28695-4.840049-34.20384 0.796306-50.316597 5.77322-16.598007 12.069016-33.034265 19.285541-49.047485 7.851081-16.921507 15.951009-34.465128 29.500656-47.641507 17.556063-15.341337 37.749891-27.261045 57.446027-39.591349 63.505419-38.322236 129.014046-73.185516 194.622211-107.73774 7.154313-3.583378 14.047339-7.701774 21.413171-10.837229z" p-id="11873"></path></svg>