<?xml version="1.0" standalone="no"?><!DOCTYPE svg PUBLIC "-//W3C//DTD SVG 1.1//EN" "http://www.w3.org/Graphics/SVG/1.1/DTD/svg11.dtd"><svg t="1686110933970" class="icon" viewBox="0 0 1024 1024" version="1.1" xmlns="http://www.w3.org/2000/svg" p-id="29842" xmlns:xlink="http://www.w3.org/1999/xlink" width="200" height="200"><path d="M682.666667 170.666667a42.666667 42.666667 0 0 1 42.666666 42.666666v179.2l222.421334-155.733333a21.333333 21.333333 0 0 1 33.578666 17.493333v515.413334a21.333333 21.333333 0 0 1-33.578666 17.493333L725.333333 631.466667V810.666667a42.666667 42.666667 0 0 1-42.666666 42.666666H85.333333a42.666667 42.666667 0 0 1-42.666666-42.666666V213.333333a42.666667 42.666667 0 0 1 42.666666-42.666666h597.333334z m-42.666667 85.333333H128v512h512V256zM315.733333 376.704a17.066667 17.066667 0 0 1 9.173334 2.645333l185.813333 118.272a17.066667 17.066667 0 0 1 0 28.757334L324.906667 644.693333A17.066667 17.066667 0 0 1 298.666667 630.186667V393.813333a17.066667 17.066667 0 0 1 17.066666-17.066666v-0.042667zM896 377.173333l-170.666667 119.466667v30.634667l170.666667 119.466666V377.173333z" p-id="29843"></path></svg>