<?xml version="1.0" standalone="no"?><!DOCTYPE svg PUBLIC "-//W3C//DTD SVG 1.1//EN" "http://www.w3.org/Graphics/SVG/1.1/DTD/svg11.dtd"><svg t="1686110907560" class="icon" viewBox="0 0 1024 1024" version="1.1" xmlns="http://www.w3.org/2000/svg" p-id="29564" xmlns:xlink="http://www.w3.org/1999/xlink" width="200" height="200"><path d="M507.093333 776.746667H196.053333A106.666667 106.666667 0 0 1 85.333333 672.853333V351.146667a106.666667 106.666667 0 0 1 110.72-103.893334h356.906667a106.666667 106.666667 0 0 1 110.72 103.893334v275.413333a42.666667 42.666667 0 0 1-85.333333 0V351.146667c0-10.026667-11.52-18.56-25.386667-18.56H196.053333c-13.653333 0-25.386667 8.533333-25.386666 18.56v321.706666c0 10.026667 11.52 18.56 25.386666 18.56h311.04a42.666667 42.666667 0 0 1 0 85.333334z" fill="#FC455D" p-id="29565"></path><path d="M460.296837 450.289987m-32.432631 32.432631a45.866667 45.866667 0 1 0 64.865262-64.865262 45.866667 45.866667 0 1 0-64.865262 64.865262Z" fill="#FF9B57" p-id="29566"></path><path d="M861.866667 695.253333a76.586667 76.586667 0 0 1-38.4-10.453333l-173.013334-100.266667a76.8 76.8 0 0 1 0-132.906666l172.8-100.266667A76.8 76.8 0 0 1 938.666667 417.92V618.666667a77.226667 77.226667 0 0 1-76.8 77.013333z m-155.946667-177.066666l147.413333 85.333333v-170.666667z" fill="#FC455D" p-id="29567"></path><path d="M483.413333 619.946667H254.08a32 32 0 0 1 0-64h229.333333a32 32 0 0 1 0 64z" fill="#FD8F9E" p-id="29568"></path></svg>