<svg xmlns="http://www.w3.org/2000/svg" xmlns:xlink="http://www.w3.org/1999/xlink" fill="none" version="1.1" width="48" height="48" viewBox="0 0 48 48"><defs><mask id="master_svg0_5523_11613"><g style="mix-blend-mode:passthrough"><rect x="0" y="0" width="47.999996185302734" height="47.999996185302734" rx="10" fill="#FFFFFF" fill-opacity="1"/></g></mask><linearGradient x1="0.8279366493225098" y1="0.8743609189987183" x2="0.12527446448802948" y2="0.07221893966197968" id="master_svg1_5523_11612"><stop offset="0%" stop-color="#E62828" stop-opacity="1"/><stop offset="100%" stop-color="#FF593B" stop-opacity="1"/></linearGradient></defs><g style="mix-blend-mode:passthrough"><g style="mix-blend-mode:passthrough"><rect x="0" y="0" width="48" height="48" rx="0" fill="#FFFFFF" fill-opacity="0"/></g><g style="mix-blend-mode:passthrough" mask="url(#master_svg0_5523_11613)"><g><g><path d="M24.9998,6C15.05914,6,7,14.00456,7,23.8793C7,33.7532,15.05914,41.7582,24.9998,41.7582C34.9413,41.7582,43,33.7532,43,23.8793C43,14.00456,34.9413,6,24.9998,6Z" fill-rule="evenodd" fill="url(#master_svg1_5523_11612)" fill-opacity="1"/></g><g><path d="M16.140361233520508,12.63489019393921C16.581521233520508,12.466420193939209,17.60910123352051,12.619210193939209,18.381361233520508,13.138510193939208C19.187011233520508,13.679310193939209,19.368791233520508,14.454010193939208,18.906881233520508,15.378350193939209L16.79894123352051,20.91634019393921C17.29153123352051,21.33794019393921,17.61361123352051,21.704040193939207,17.731341233520507,22.05174019393921C18.101161233520507,23.145840193939208,19.137801233520506,31.76434019393921,19.475291233520508,34.77964019393921L19.498191233520508,34.98534019393921C19.54876123352051,35.44224019393921,19.579011233520507,35.73474019393921,19.58261123352051,35.80214019393921C19.649371233520508,37.06254019393921,18.703441233520508,36.989940193939205,18.399861233520507,36.81124019393921C18.08364123352051,36.625240193939206,17.243721233520507,35.644040193939205,17.019981233520507,35.15834019393921C16.793531233520508,34.666340193939206,16.683011233520507,34.136340193939205,16.692041233520506,33.58384019393921C16.59550123352051,31.68184019393921,16.496711233520507,29.85424019393921,16.398831233520507,28.16454019393921C16.30861123352051,26.60894019393921,16.043821233520507,24.94124019393921,15.610781233520509,23.20054019393921Q14.911571233520508,24.190540193939206,14.154871233520508,25.18124019393921L14.086971233520508,25.26994019393921C13.984941233520509,25.40284019393921,13.882221233520507,25.53534019393921,13.780361233520509,25.66484019393921L13.712601233520507,25.750740193939208C13.487271233520508,26.03544019393921,13.267921233520507,26.30304019393921,13.071601233520507,26.52734019393921C12.347151233520508,27.356240193939207,11.584816233520508,27.72374019393921,11.208608233520508,27.67084019393921C10.314100233520508,27.545340193939207,13.397741233520508,23.745340193939207,14.668001233520508,19.88761019393921C15.407791233520507,17.63925019393921,15.888201233520508,15.506500193939209,15.698741233520508,13.406000193939208C15.686111233520508,13.163600193939208,15.699191233520509,12.80336019393921,16.140361233520508,12.63489019393921ZM19.48269123352051,24.47274019393921C20.08039123352051,24.23534019393921,20.623051233520506,24.24244019393921,21.172011233520507,24.43914019393921C21.750311233520506,24.64664019393921,22.10981123352051,25.12514019393921,22.240611233520507,25.86084019393921L23.22451123352051,32.64314019393921Q35.50531123352051,29.64154019393921,36.1098112335205,29.45154019393921C36.64141123352051,29.28504019393921,36.91621123352051,29.29084019393921,37.15841123352051,29.307140193939208L37.20811123352051,29.310540193939207C37.224611233520505,29.311740193939208,37.24101123352051,29.31294019393921,37.25741123352051,29.31404019393921C37.528511233520504,29.331540193939208,37.8722112335205,29.429140193939208,38.31291123352051,29.60844019393921C38.94351123352051,29.90994019393921,39.27731123352051,30.308740193939208,39.3170112335205,30.79844019393921C39.34641123352051,31.167240193939207,39.04101123352051,31.69094019393921,38.27911123352051,31.763140193939208C37.51721123352051,31.83524019393921,31.792411233520507,32.38054019393921,27.945111233520507,33.49754019393921C24.09781123352051,34.614540193939206,22.48561123352051,35.39324019393921,22.118811233520507,35.31894019393921C21.824311233520508,35.25934019393921,21.52481123352051,35.17464019393921,21.23701123352051,34.98064019393921C20.626201233520508,34.56884019393921,20.609061233520507,34.08094019393921,20.70244123352051,33.74394019393921Q21.135511233520507,32.78694019393921,20.295551233520506,27.26234019393921C20.20443123352051,26.85514019393921,20.030311233520507,26.49214019393921,19.78041123352051,26.19154019393921C19.502991233520508,25.859040193939208,19.155201233520508,25.353240193939207,19.099271233520508,25.18384019393921C19.049651233520507,25.03374019393921,19.12859123352051,24.61344019393921,19.48269123352051,24.47274019393921ZM24.14831123352051,10.92286219393921C24.255611233520508,10.300060993939208,25.485811233520508,9.946991193939208,27.061011233520507,10.810847193939209C28.135911233520506,11.443950193939209,27.887411233520506,11.95340019393921,27.67721123352051,12.850860193939209C27.59691123352051,13.192280193939208,27.494911233520508,13.77923019393921,27.396611233520506,14.528830193939209C28.789511233520507,14.002360193939209,29.341211233520507,13.614790193939209,30.104911233520507,13.322660193939209C31.09821123352051,12.942260193939209,31.92461123352051,12.941360193939209,32.47851123352051,13.110730193939208C33.03251123352051,13.279650193939208,33.39421123352051,14.312420193939209,32.87191123352051,14.849640193939209C32.5974112335205,15.131910193939209,30.640011233520507,15.735800193939209,28.502611233520508,16.310340193939208L28.347811233520506,16.351820193939208C28.32201123352051,16.35872019393921,28.29611123352051,16.365620193939208,28.27021123352051,16.37251019393921L28.11471123352051,16.41378019393921C28.06281123352051,16.42751019393921,28.010911233520506,16.44120019393921,27.958911233520507,16.454870193939207L27.802911233520508,16.49576019393921L27.64691123352051,16.536410193939208C27.59481123352051,16.549920193939208,27.542811233520506,16.56338019393921,27.490911233520507,16.57680019393921L27.335111233520507,16.61689019393921C27.283211233520507,16.63020019393921,27.231411233520507,16.64346019393921,27.179611233520507,16.65666019393921C27.126411233520507,17.362350193939207,27.08761123352051,18.12047019393921,27.072711233520508,18.89919019393921L27.195211233520507,18.84898019393921C27.21561123352051,18.84062019393921,27.236111233520507,18.83227019393921,27.25651123352051,18.82393019393921L27.37881123352051,18.77401019393921C28.580211233520508,18.28448019393921,29.72941123352051,17.838600193939207,30.05711123352051,17.78532019393921C30.935411233520508,17.64194019393921,32.10501123352051,17.99725019393921,32.52411123352051,18.530890193939207C32.9026112335205,19.01300019393921,32.51461123352051,20.46334019393921,32.48621123352051,21.00374019393921C32.45781123352051,21.54364019393921,32.7271112335205,23.42864019393921,32.99951123352051,24.680940193939207C33.092311233520505,25.10854019393921,33.18671123352051,25.65324019393921,33.27051123352051,26.20594019393921L33.28971123352051,26.33354019393921C33.44771123352051,27.39764019393921,33.56351123352051,28.46024019393921,33.55171123352051,28.74574019393921C33.53141123352051,29.22294019393921,33.21741123352051,29.75524019393921,32.677911233520504,29.87394019393921C32.1980112335205,29.97874019393921,31.22591123352051,29.12474019393921,31.204211233520507,29.13154019393921L26.224211233520506,30.44114019393921C26.044211233520507,31.15534019393921,25.694211233520505,31.45874019393921,25.31891123352051,31.450840193939207C24.944011233520506,31.44214019393921,24.349011233520507,30.70914019393921,24.242111233520507,30.23644019393921C24.13571123352051,29.76374019393921,23.00071123352051,22.799540193939208,22.814911233520508,22.20674019393921C22.62951123352051,21.613940193939207,22.333611233520507,21.26584019393921,22.228911233520506,21.07854019393921C22.098111233520505,20.843740193939208,22.15901123352051,20.45624019393921,22.28851123352051,20.28011019393921C22.41071123352051,20.11478019393921,22.60601123352051,20.013520193939208,22.86901123352051,19.97902019393921C23.31291123352051,19.92256019393921,23.73371123352051,19.97677019393921,24.122111233520506,20.14166019393921Q24.388311233520508,20.02696019393921,24.806411233520507,19.848630193939208C24.811511233520505,19.79501019393921,24.817711233520505,19.72901019393921,24.824811233520506,19.65205019393921L24.831011233520506,19.583430193939208C24.87711123352051,19.072910193939208,24.95291123352051,18.16420019393921,25.004011233520508,17.18716019393921C24.360311233520505,17.33592019393921,23.794611233520506,17.458240193939208,23.37111123352051,17.53844019393921C21.02858123352051,17.98336019393921,19.88732123352051,17.46138019393921,19.89585123352051,17.08725019393921C19.91349123352051,16.34034019393921,22.240611233520507,16.06478019393921,25.056311233520507,15.28337019393921C25.054511233520508,14.894450193939209,25.04281123352051,14.529280193939208,25.015311233520507,14.217880193939209C24.831211233520506,12.13621019393921,24.020211233520506,11.668430193939209,24.14831123352051,10.92286219393921ZM28.911811233520506,20.044880193939207C28.656611233520508,20.03217019393921,27.77481123352051,20.29557019393921,26.882111233520508,20.58914019393921L26.76301123352051,20.62844019393921C26.72331123352051,20.64164019393921,26.68371123352051,20.654740193939208,26.644211233520508,20.66794019393921L26.525811233520507,20.70764019393921Q25.562411233520507,21.031240193939208,24.683311233520506,21.35184019393921Q24.784811233520507,21.89084019393921,24.935411233520508,22.706840193939207C25.324311233520508,22.563840193939207,26.11821123352051,22.25964019393921,26.566611233520508,22.093840193939208C27.084911233520508,21.90254019393921,27.775911233520507,21.81114019393921,28.175211233520507,21.84244019393921C28.574411233520507,21.87384019393921,28.93031123352051,22.06334019393921,29.085511233520506,22.394540193939207C29.240611233520507,22.72564019393921,28.873411233520507,23.004340193939207,28.579311233520507,23.09304019393921C28.064211233520506,23.24224019393921,25.741111233520506,23.93044019393921,25.18671123352051,24.080540193939207C25.28281123352051,24.61064019393921,25.385211233520508,25.179140193939208,25.48671123352051,25.755340193939208C26.314911233520508,25.46864019393921,27.92301123352051,24.88484019393921,28.58431123352051,24.978440193939207C29.362911233520506,25.08914019393921,29.61501123352051,25.655440193939206,29.614611233520506,25.81274019393921C29.613711233520508,25.97984019393921,29.394911233520506,26.164040193939208,29.08911123352051,26.27604019393921C28.879711233520506,26.347040193939208,28.195311233520506,26.55934019393921,27.48531123352051,26.778340193939208L27.35601123352051,26.818240193939207C26.709211233520506,27.017540193939208,26.063811233520507,27.215740193939208,25.757311233520507,27.31144019393921C25.86061123352051,27.91904019393921,25.955311233520508,28.494840193939208,26.03251123352051,28.99394019393921C26.623411233520507,28.78114019393921,29.42871123352051,27.76084019393921,29.917311233520508,27.638140193939208Q30.46851123352051,27.499240193939208,30.725611233520507,27.59914019393921C30.680111233520506,26.99094019393921,30.492411233520507,25.766740193939206,30.283211233520507,24.51994019393921L30.253111233520507,24.34164019393921C30.248111233520508,24.311940193939208,30.24311123352051,24.28224019393921,30.238011233520506,24.25254019393921L30.20771123352051,24.07464019393921C29.93941123352051,22.50494019393921,29.659711233520508,21.01154019393921,29.611411233520506,20.786440193939207C29.520711233520508,20.36214019393921,29.377811233520507,20.06818019393921,28.911811233520506,20.044880193939207Z" fill-rule="evenodd" fill="#FFFFFF" fill-opacity="1"/></g></g></g></g></svg>