<svg xmlns="http://www.w3.org/2000/svg" xmlns:xlink="http://www.w3.org/1999/xlink" fill="none" version="1.1" width="48" height="48" viewBox="0 0 48 48"><defs><mask id="master_svg0_2190_04364"><g style="mix-blend-mode:passthrough"><rect x="0" y="0" width="47.999996185302734" height="47.999996185302734" rx="10" fill="#FFFFFF" fill-opacity="1"/></g></mask><linearGradient x1="0.5" y1="0" x2="0.5" y2="1" id="master_svg1_2190_06358"><stop offset="0%" stop-color="#45E0FF" stop-opacity="1"/><stop offset="100%" stop-color="#006FF6" stop-opacity="1"/></linearGradient></defs><g style="mix-blend-mode:passthrough"><g style="mix-blend-mode:passthrough"><rect x="0" y="0" width="48" height="48" rx="0" fill="#FFFFFF" fill-opacity="0"/></g><g style="mix-blend-mode:passthrough" mask="url(#master_svg0_2190_04364)"><g><path d="M24.6025,35.481899999999996L26.8411,35.481899999999996L27.654,38.3146L31.5935,35.481899999999996L37.14,35.481899999999996L37.14,12.883189999999999L24.6025,12.883189999999999L24.6025,35.481899999999996ZM27.2538,15.39694L34.5762,15.39694L34.5762,32.905699999999996L31.9874,32.905699999999996L28.6608,35.4444L27.9354,32.9056L27.2538,32.9056L27.2538,15.39694ZM7,38.4897C8.59581,39.0633,10.36212,38.9149,11.83991,38.083200000000005Q14.222349999999999,36.6763,15.97947,30.4794L21.607300000000002,37.414100000000005Q22.119999999999997,34.1125,21.5197,33.180800000000005Q20.9194,32.2491,17.6491,28.4972L16.21709,29.7478L17.2363,25.6458L23.3206,25.6458Q23.3206,23.232100000000003,22.1263,23.0945Q20.9319,22.956899999999997,17.2238,23.0945L17.2238,15.590779999999999L22.6953,15.590779999999999Q22.6328,13.08954,21.5698,13.08954L12.63406,13.08954L14.02225,9Q11.77112,9.131315,10.976980000000001,10.53827Q10.18283,11.945219999999999,7.600298,19.1988Q8.45697,19.599,9.91395,18.523490000000002C10.84795,17.76453,11.52134,16.73258,11.83991,15.57202L14.49123,15.44071L14.56627,23.119500000000002Q9.995239999999999,23.0507,9.06978,23.119500000000002Q8.14432,23.188299999999998,7.612805,25.6708L14.56627,25.6708Q13.97222,29.8979,12.18383,32.9869Q10.39544,36.076,7,38.4897Z" fill="url(#master_svg1_2190_06358)" fill-opacity="1"/></g></g></g></svg>