<?xml version="1.0" standalone="no"?><!DOCTYPE svg PUBLIC "-//W3C//DTD SVG 1.1//EN" "http://www.w3.org/Graphics/SVG/1.1/DTD/svg11.dtd"><svg t="1686121144259" class="icon" viewBox="0 0 1024 1024" version="1.1" xmlns="http://www.w3.org/2000/svg" p-id="2835" xmlns:xlink="http://www.w3.org/1999/xlink" width="200" height="200"><path d="M883.014493 7.42029H140.985507A133.565217 133.565217 0 0 0 7.42029 140.985507v742.028986a133.565217 133.565217 0 0 0 133.565217 133.565217h204.354783a681.924638 681.924638 0 0 1 23.448116-170.295652l-175.415652-31.016812a75.612754 75.612754 0 0 1-73.757682-75.464347V281.971014a75.538551 75.538551 0 0 1 75.315942-75.53855 45.708986 45.708986 0 0 1 45.412174-40.663189l253.922319 42.592464c0 1.038841-0.593623 224.76058-0.742029 391.642899q14.098551-17.734493 29.68116-34.430145c0-161.762319-0.445217-356.173913-0.742029-357.435363l256.51942-42.369855a45.56058 45.56058 0 0 1 45.412174 41.331015 16.695652 16.695652 0 0 1 4.748985-0.667826A75.538551 75.538551 0 0 1 904.236522 281.971014v72.199421A682.666667 682.666667 0 0 1 1016.57971 343.336812V140.985507a133.565217 133.565217 0 0 0-133.565217-133.565217z" fill="#5398F7" p-id="2836"></path><path d="M828.846377 243.533913a18.550725 18.550725 0 0 1-4.526377-0.667826v130.81971c14.098551-4.377971 28.41971-8.310725 42.815072-11.798261V281.971014a38.362899 38.362899 0 0 0-38.288695-38.437101zM194.634203 690.828986V243.533913A38.437101 38.437101 0 0 0 156.716522 281.971014v457.906087a38.437101 38.437101 0 0 0 38.362898 38.362899 16.176232 16.176232 0 0 1 3.264928 0l181.129275 32.055652c5.342609-16.250435 11.353043-32.278261 17.882899-47.935072l-157.013334-25.896812a45.634783 45.634783 0 0 1-45.708985-45.634782zM441.210435 321.372754l-172.744348-27.751884a18.550725 18.550725 0 0 0-5.491015 36.656231l172.744348 27.751885h2.745508a18.550725 18.550725 0 0 0 2.745507-37.10145zM566.464928 448.333913a18.476522 18.476522 0 0 0 18.328115 15.805217h2.745508l67.747246-10.907826a678.288696 678.288696 0 0 1 99.506087-53.574492l-172.744348 27.603478a18.476522 18.476522 0 0 0-15.582608 21.073623zM754.791884 293.62087l-172.744348 27.751884a18.550725 18.550725 0 0 0 2.745507 37.101449h2.745508l172.744348-27.751884a18.550725 18.550725 0 1 0-5.491015-36.656232z" fill="#5398F7" p-id="2837"></path><path d="M441.210435 427.26029l-172.744348-27.751884a18.550725 18.550725 0 0 0-5.491015 36.656232l172.744348 27.826087h2.745508a18.550725 18.550725 0 0 0 2.745507-37.10145zM441.210435 533.222029l-172.744348-27.826087a18.550725 18.550725 0 0 0-5.491015 37.101449l172.744348 27.38087h2.745508a18.550725 18.550725 0 0 0 2.745507-37.101449zM1012.795362 829.143188l-31.387826-14.840579a176.751304 176.751304 0 0 0-0.667826-25.08058l29.68116-15.36a16.324638 16.324638 0 0 0 7.420289-20.851015l-29.310145-68.192463a16.324638 16.324638 0 0 0-20.331594-8.904348l-32.871884 11.575652a173.56058 173.56058 0 0 0-18.17971-17.289275L927.536232 638.144928a16.250435 16.250435 0 0 0-9.423768-20.034783l-68.934493-27.529275a16.324638 16.324638 0 0 0-20.702609 8.013913l-14.840579 31.462029a188.475362 188.475362 0 0 0-25.08058 0.593623l-15.285797-29.68116a16.324638 16.324638 0 0 0-20.851015-7.420289l-68.266666 29.310144a16.250435 16.250435 0 0 0-8.904348 19.812174l11.575652 32.946087a182.01971 182.01971 0 0 0-17.289275 18.17971l-31.98145-10.314202a16.176232 16.176232 0 0 0-20.034782 9.423768l-27.529276 68.934492a16.250435 16.250435 0 0 0 8.013913 20.628406l31.462029 14.84058a176.009275 176.009275 0 0 0 0.667826 25.006377l-29.681159 15.36a16.250435 16.250435 0 0 0-7.42029 20.851014l29.68116 68.192464a16.250435 16.250435 0 0 0 20.331594 8.904348l32.204058-11.204638a173.263768 173.263768 0 0 0 18.17971 17.215073l-10.314203 32.055652a16.324638 16.324638 0 0 0 9.423768 20.034782l68.934493 27.529276a16.398841 16.398841 0 0 0 20.702609-8.088116l14.840579-31.462029a166.585507 166.585507 0 0 0 25.08058-0.593623l15.285797 29.681159a16.250435 16.250435 0 0 0 20.851015 7.42029l68.266666-29.235942a16.398841 16.398841 0 0 0 8.904348-20.331594l-11.575652-32.946087a181.277681 181.277681 0 0 0 17.289275-18.105508l31.98145 10.314203a16.250435 16.250435 0 0 0 20.034782-9.423768l27.529276-69.008695a16.250435 16.250435 0 0 0-7.865508-20.331595z m-44.002319 63.517682l-28.41971-9.20116a16.176232 16.176232 0 0 0-18.17971 6.010435 143.137391 143.137391 0 0 1-27.306666 28.716522 16.324638 16.324638 0 0 0-5.194203 18.105507l10.24 29.087536-40.366377 17.363478-13.653334-26.63884a16.250435 16.250435 0 0 0-17.140869-8.607536 140.985507 140.985507 0 0 1-39.550145 1.03884 16.176232 16.176232 0 0 0-16.473043 9.126957l-13.356522 27.826087-40.811594-16.324638 9.201159-28.41971a16.324638 16.324638 0 0 0-6.010435-18.17971 140.985507 140.985507 0 0 1-28.716522-27.306667A16.250435 16.250435 0 0 0 675.246377 890.434783l-29.68116 9.868985-17.289275-40.366377 26.564638-13.57913a16.250435 16.250435 0 0 0 8.607536-17.14087 141.727536 141.727536 0 0 1-0.964638-39.624348 16.398841 16.398841 0 0 0-9.126956-16.473043l-27.826087-13.356522 16.250435-40.737391 28.41971 9.126956a16.176232 16.176232 0 0 0 18.253913-6.010434 144.769855 144.769855 0 0 1 27.232464-28.716522A16.176232 16.176232 0 0 0 721.252174 675.246377l-10.24-29.161739 40.292174-17.289276 13.653333 26.564638a16.102029 16.102029 0 0 0 17.066667 8.607536 141.875942 141.875942 0 0 1 39.624348-0.964637 16.250435 16.250435 0 0 0 16.844058-8.978551l13.356521-27.826087 40.811595 16.250435-9.646377 28.41971a16.176232 16.176232 0 0 0 6.010435 18.17971 140.985507 140.985507 0 0 1 28.716521 27.306667 16.250435 16.250435 0 0 0 18.105508 5.194203l29.087536-10.165798 17.363478 40.292174-26.564638 13.653334a16.102029 16.102029 0 0 0-8.607536 17.066666 141.801739 141.801739 0 0 1 0.964638 39.624348A16.250435 16.250435 0 0 0 957.217391 838.492754l27.826087 13.356521z" fill="#5398F7" p-id="2838"></path><path d="M776.533333 738.393043a73.386667 73.386667 0 1 0 96.463768 38.437102 73.535072 73.535072 0 0 0-96.463768-38.437102z m45.04116 104.997102a40.885797 40.885797 0 1 1 21.51884-53.722899 40.885797 40.885797 0 0 1-21.51884 53.722899z" fill="#5398F7" p-id="2839"></path></svg>