<?xml version="1.0" standalone="no"?><!DOCTYPE svg PUBLIC "-//W3C//DTD SVG 1.1//EN" "http://www.w3.org/Graphics/SVG/1.1/DTD/svg11.dtd"><svg t="1686116261354" class="icon" viewBox="0 0 1024 1024" version="1.1" xmlns="http://www.w3.org/2000/svg" p-id="8968" xmlns:xlink="http://www.w3.org/1999/xlink" width="200" height="200"><path d="M849.170732 0c97.404878 0 174.829268 77.42439 174.829268 174.829268v674.341464c0 97.404878-77.42439 174.829268-174.829268 174.829268H174.829268c-97.404878 0-174.829268-77.42439-174.829268-174.829268V174.829268c0-97.404878 77.42439-174.829268 174.829268-174.829268h674.341464z m-132.370732 362.146341h-32.468293V706.809756c-2.497561 14.985366-14.985366 27.473171-32.468292 29.970732H367.141463V771.746341c2.497561 14.985366 14.985366 27.473171 32.468293 29.970732h317.190244c17.482927 0 32.468293-14.985366 32.468293-32.468293V392.117073c-2.497561-17.482927-17.482927-29.970732-32.468293-29.970732zM599.414634 249.756098H282.22439c-17.482927 0-32.468293 14.985366-32.468292 32.468292v377.131708c2.497561 14.985366 14.985366 27.473171 32.468292 29.970731H601.912195c14.985366-2.497561 27.473171-14.985366 27.473171-32.468292V279.726829c0-17.482927-12.487805-29.970732-29.970732-29.970731z m-62.439024 302.204878c14.985366 0 27.473171 12.487805 27.47317 27.47317 0 14.985366-12.487805 27.473171-27.47317 27.473171h-189.814634c-14.985366 0-27.473171-12.487805-27.473171-27.473171s12.487805-27.473171 27.473171-27.47317h189.814634z m0-104.897561c14.985366 0 27.473171 12.487805 27.47317 27.47317s-12.487805 24.97561-27.47317 24.97561h-189.814634c-14.985366 0-27.473171-12.487805-27.473171-27.473171 0-14.985366 12.487805-27.473171 27.473171-27.47317h189.814634z m0-107.395122c14.985366 0 27.473171 12.487805 27.47317 27.47317 0 14.985366-12.487805 27.473171-27.47317 27.473171h-189.814634c-14.985366 0-27.473171-12.487805-27.473171-27.473171 0-14.985366 12.487805-27.473171 27.473171-27.47317h189.814634z" fill="#CA63E4" p-id="8969"></path></svg>